<svg xmlns="http://www.w3.org/2000/svg" xmlns:xlink="http://www.w3.org/1999/xlink" width="160" height="42" viewBox="0 0 160 42">
  <defs>
    <clipPath id="clip-custom_1">
      <rect width="160" height="42"/>
    </clipPath>
  </defs>
  <g id="custom_1" data-name="custom – 1" clip-path="url(#clip-custom_1)">
    <rect width="160" height="42" fill="#343644"/>
    <g id="Group_2" data-name="Group 2" transform="translate(-56 -150)">
      <rect id="Rectangle_1" data-name="Rectangle 1" width="95" height="38" transform="translate(58 152)" fill="#e1e1e1"/>
      <text id="HARVEL" transform="translate(100 177)" font-size="15" font-family="SegoeUI, Segoe UI"><tspan x="0" y="0">HARVEL</tspan></text>
      <text id="ELECTRIC" transform="translate(152 177)" fill="#fff" font-size="15" font-family="SegoeUI, Segoe UI"><tspan x="0" y="0">ELECTRIC</tspan></text>
      <g id="light-bulb" transform="translate(52.2 157.2)">
        <g id="Group_1" data-name="Group 1" transform="translate(9.8)">
          <path id="XMLID_49_" d="M30.344,24.119v.806a1.41,1.41,0,0,1-1.36,1.266l-.249.733a1.131,1.131,0,0,1-1.1.676h-2.47a1.131,1.131,0,0,1-1.1-.676l-.242-.733a1.416,1.416,0,0,1-1.367-1.272v-.806a.891.891,0,0,1,.975-.778h5.944A.9.9,0,0,1,30.344,24.119Zm4.577-10.87a6.137,6.137,0,0,1-2.392,4.719,5.862,5.862,0,0,0-2.093,3.385,1.352,1.352,0,0,1-1.4.948H23.752a1.339,1.339,0,0,1-1.388-.943,5.932,5.932,0,0,0-2.107-3.4,6.151,6.151,0,0,1-2.378-4.64c-.05-3.782,3.723-6.843,8.464-6.872S34.921,9.478,34.921,13.249Zm-7.56-4.117a.881.881,0,0,0-.961-.767c-3.388,0-6.15,2.2-6.15,4.907a.986.986,0,0,0,1.922,0c0-1.863,1.9-3.373,4.228-3.373A.877.877,0,0,0,27.361,9.132ZM26.4,4.22a.881.881,0,0,0,.961-.767V.767a.986.986,0,0,0-1.922,0V3.453A.881.881,0,0,0,26.4,4.22ZM15.089,13.243a.881.881,0,0,0-.961-.767H10.761a.881.881,0,0,0-.961.767.881.881,0,0,0,.961.767h3.367A.877.877,0,0,0,15.089,13.243Zm26.95-.767H38.672a.881.881,0,0,0-.961.767.881.881,0,0,0,.961.767h3.367A.881.881,0,0,0,43,13.243.881.881,0,0,0,42.039,12.477Zm-24.993,7.15-2.385,1.9a.661.661,0,0,0,0,1.085,1.143,1.143,0,0,0,1.352,0l2.385-1.9a.661.661,0,0,0,0-1.085A1.126,1.126,0,0,0,17.046,19.627ZM35.077,7.087a1.1,1.1,0,0,0,.676-.221l2.385-1.9a.661.661,0,0,0,0-1.085,1.136,1.136,0,0,0-1.36,0l-2.385,1.9a.661.661,0,0,0,0,1.085A1.118,1.118,0,0,0,35.077,7.087ZM17.046,6.86a1.143,1.143,0,0,0,1.352,0,.661.661,0,0,0,0-1.085l-2.385-1.9a1.136,1.136,0,0,0-1.36,0,.661.661,0,0,0,0,1.085ZM35.753,19.627a1.136,1.136,0,0,0-1.36,0,.661.661,0,0,0,0,1.085l2.385,1.9a1.143,1.143,0,0,0,1.352,0,.661.661,0,0,0,0-1.085Z" transform="translate(-9.8)"/>
        </g>
      </g>
    </g>
  </g>
</svg>
