<?xml version="1.0" encoding="utf-8"?>
<!-- Generator: Adobe Illustrator 16.0.0, SVG Export Plug-In . SVG Version: 6.00 Build 0)  -->
<!DOCTYPE svg PUBLIC "-//W3C//DTD SVG 1.1//EN" "http://www.w3.org/Graphics/SVG/1.1/DTD/svg11.dtd">
<svg version="1.1" id="Layer_1" xmlns="http://www.w3.org/2000/svg" xmlns:xlink="http://www.w3.org/1999/xlink" x="0px" y="0px"
	 width="3000px" height="632.194px" viewBox="0 0 3000 632.194" enable-background="new 0 0 3000 632.194" xml:space="preserve">
<path fill="#47BFEF" d="M1049.203,313.242c0.184-0.039,0.367-0.081,0.55-0.124C1049.569,313.161,1049.387,313.202,1049.203,313.242"
	/>
<path fill="#47BFEF" d="M1047.226,313.597c0.124-0.017,0.246-0.04,0.369-0.059C1047.472,313.557,1047.35,313.581,1047.226,313.597"
	/>
<path fill="#47BFEF" d="M1049.752,313.118c-0.183,0.043-0.366,0.085-0.55,0.124c-0.533,0.116-1.068,0.214-1.607,0.297
	c-0.123,0.018-0.246,0.041-0.369,0.059c-0.678,0.095-1.36,0.168-2.046,0.21c0.547,0.038,1.093,0.054,1.64,0.054
	c1.715,0,3.403-0.183,5.065-0.502c-0.536-0.105-1.07-0.226-1.599-0.362C1050.109,313.042,1049.929,313.076,1049.752,313.118"/>
<path fill="#47BFEF" d="M1045.161,313.807c0.006,0,0.013,0,0.019,0.001c0.687-0.043,1.368-0.117,2.046-0.211
	C1046.542,313.692,1045.854,313.765,1045.161,313.807"/>
<path fill="#47BFEF" d="M1047.595,313.538c0.539-0.083,1.074-0.181,1.607-0.296C1048.669,313.357,1048.134,313.455,1047.595,313.538
	"/>
<g opacity="0.6">
	<path fill="#47BFEF" d="M2654.171,498.996v-25.898H2627.9V423.78v-6.525v-0.735h-1.702v0.735h-1.789v-0.735h-1.706v0.735h-0.366
		c0-3.66-2.964-6.627-6.624-6.627c-1.343,0-2.589,0.403-3.632,1.089v-17.675h3.5v-2.769h-1.124v-10.009h-3.247v-54.941h1.876v-2.769
		h-2.709v-5.112h-2.662V308.22h1.599v-1.918h-1.019c0-2.43-1.84-4.41-4.2-4.677v-8.737h-1.064v8.737
		c-2.36,0.267-4.2,2.247-4.2,4.677h-1.015v1.918h1.595v10.222h-2.664v5.112h-2.709v2.769h1.878v54.941h-3.245v10.009h-1.123v2.769
		h3.497v17.383c-1.866,1.01-3.189,2.89-3.433,5.095h-0.341v0.735h-1.788v-0.735h-1.704v0.735h-0.478c0-3.66-2.966-6.627-6.626-6.627
		c-0.574,0-1.129,0.08-1.66,0.218V273.356h-16.705v-16.019h-22.273v16.019h-11.645v18.392h-5.566v121.535
		c-0.694,0.922-1.157,2.028-1.289,3.236h-0.118v0.735h-1.788v-0.735h-1.704v0.735h-0.698c0-3.66-2.967-6.627-6.627-6.627
		c-3.41,0-6.217,2.579-6.582,5.892h-0.063v0.735h-1.789v-0.735h-1.704v0.735h-0.753c0-3.66-2.966-6.627-6.627-6.627
		c-1.925,0-3.653,0.827-4.863,2.136c-1.848-5.21-6.809-8.95-12.654-8.95c-7.175,0-13.02,5.628-13.402,12.706h-0.151v56.578h-29.169
		v-47.006v-1.39v-3.569h-1.522v3.569h-0.758v-3.569h-1.521v3.569h-0.76v-3.569h-1.521v3.569h-0.757v-3.569h-1.523v3.569h-0.76
		v-3.569h-1.519v3.569h-0.76v-3.569h-1.521v3.569h-0.76v-3.569h-0.656v-52.809h-0.012l0.286-1.08h0.547l-0.092-1.937h1.001
		l0.09-2.802h0.729v-5.244h-3.985v-16.93l0.069-0.26h0.409l-0.065-1.454h0.75l0.068-2.105h0.55v-3.939h-3.577v-7.061h1.293v-5.892
		h0.188l-1.737-5.732v-0.573v-6.88v-0.363c0-1.444-0.735-2.675-1.774-3.183l-0.628-0.613v-1.189h0.392v-0.863h-0.392v-0.86h0.392
		V298.5h-0.392v-1.315c0.77-0.199,1.346-0.861,1.346-1.691c0-0.981-0.793-1.777-1.775-1.777c-0.983,0-1.778,0.796-1.778,1.777
		c0,0.83,0.58,1.492,1.347,1.691v1.315h-0.389v0.862h0.389v0.86h-0.389v0.863h0.389v1.129l-0.644,0.68
		c-1.036,0.513-1.766,1.739-1.766,3.177v0.363v6.88v0.577l-1.729,5.729h0.184v5.892h1.298v7.061h-3.577v3.939h0.55l0.067,2.105
		h0.751l-0.065,1.454h0.408l0.067,0.264v16.926h-3.987v5.244h0.729l0.09,2.802h1.005l-0.094,1.937h0.545l0.29,1.08h-0.009v56.378
		h-0.382v-3.569h-1.521v3.569h-0.76v-3.569h-1.521v3.569h-0.76v-3.569h-1.52v3.569h-0.76v-3.569h-1.522v3.569h-0.757v-3.569h-1.521
		v3.569h-0.762v-3.569h-1.109v-5.401v-1.691v-4.342h-0.146v-0.008h-2.084v-0.312h-0.066l-2.043-2.867v-0.202v-0.559v-3.659v-0.56
		v-1.673c0-2.451-3.054-5.063-6.592-6.398c-0.295-0.113-0.688-0.341-0.934-0.488v-0.549h0.202v-0.447h-0.202v-0.451h0.202v-0.447
		h-0.202v-0.687c0.398-0.102,0.697-0.445,0.697-0.878c0-0.511-0.413-0.926-0.922-0.926c-0.513,0-0.926,0.415-0.926,0.926
		c0,0.433,0.3,0.776,0.699,0.878v0.687h-0.201v0.447h0.201v0.451h-0.201v0.447h0.201v0.555c-0.25,0.16-0.656,0.402-0.936,0.489
		c-3.596,1.128-6.591,3.946-6.591,6.392v1.673v0.56v3.659v0.559v0.202l-2.041,2.867h-0.068v0.312h-3.515v-1.548h-0.132l-3.993-5.607
		v-0.396v-1.093v-10.063v-1.091v-0.365c0-4.794-5.973-9.896-12.888-12.509c-0.58-0.22-1.353-0.665-1.829-0.955v-1.072h0.397v-0.877
		h-0.397v-0.875h0.397v-0.88h-0.397v-1.341c0.782-0.2,1.369-0.875,1.369-1.717c0-0.999-0.808-1.811-1.808-1.811
		c-0.998,0-1.808,0.812-1.808,1.811c0,0.842,0.587,1.517,1.371,1.717v1.341h-0.399v0.88h0.399v0.875h-0.399v0.877h0.399v1.087
		c-0.493,0.308-1.289,0.78-1.834,0.952c-1.22,0.383-2.402,0.872-3.528,1.435V270.048h-9.271v-14.611h-5.9v-2.808h5.9v-4.496h-29.217
		v4.496h5.899v2.808h-5.899v14.611h-9.274v151.084h-0.481v3.569h-0.76v-3.569h-1.518v3.569h-0.762v-3.569h-1.519v3.569h-39.614
		v-3.569h-1.517v3.569h-0.763v-3.569h-1.518v3.569v1.39v15.963h-4.479v-73.73h-0.011l0.286-1.08h0.545l-0.09-1.937h1.001
		l0.089-2.802h0.728v-5.244h-3.983v-16.93l0.068-0.26h0.411l-0.069-1.454h0.751l0.068-2.105h0.55v-3.939h-3.575v-7.061h1.291v-5.892
		h0.189l-1.735-5.732v-0.573v-6.88v-0.363c0-1.444-0.736-2.675-1.775-3.183l-0.63-0.613v-1.189h0.393v-0.863h-0.393v-0.86h0.393
		V298.5h-0.393v-1.315c0.77-0.199,1.349-0.861,1.349-1.691c0-0.981-0.797-1.777-1.777-1.777c-0.984,0-1.78,0.796-1.78,1.777
		c0,0.83,0.581,1.492,1.349,1.691v1.315h-0.391v0.862h0.391v0.86h-0.391v0.863h0.391v1.129l-0.643,0.68
		c-1.039,0.513-1.765,1.739-1.765,3.177v0.363v6.88v0.577l-1.733,5.729h0.188v5.892h1.298v7.061h-3.578v3.939h0.55l0.068,2.105
		h0.751l-0.069,1.454h0.409l0.071,0.264v16.926h-3.989v5.244h0.728l0.092,2.802h1.006l-0.098,1.937h0.545l0.293,1.08h-0.012v73.73
		h-9.399v-83.232h2.891v-7.571h-2.891V336.11h2.891v-7.573h-2.891v-40.693h2.891v-7.571h-2.891v-20.821h2.891v-7.571h-2.891h-3.913
		v-16.562h2.211v-5.206h-2.211h-0.441l-9.591-37.733h-2.384h-0.339h-2.387l-9.591,37.733h-0.441h-2.213v5.206h2.213v16.562h-3.912
		h-2.895v7.571h2.895v20.821h-2.895v7.571h2.895v40.693h-2.895v7.573h2.895v15.141h-2.895v7.571h2.895v81.469h-2.938v-7.48h-36.352
		v-28.128h-7.714v-18.863h-4.176v-84.345h-11.15v-92.428h-6.479v-43.272h-2.672v-36.33h-2.734v-28.047h-1.631V72.28h-2.511V42.83
		h-0.651V15.381h-1.304V42.83h-0.65v11.618h-1.791v27.981h-2.525v35.796h-3.21v25.112h-2.475v32.588h-5.812v97.771h-10.867v86.278
		h-4.373v22.271h-7.212v50.565h-24.012v7.48h-3.627V250.257l-22.52-46.465v-42.427h-2.303v42.65l-11.255,45.507h-0.448v223.574
		h-15.007v-71.832h-6.638v-86.841h-0.727l-10.307-40.854v-39.969h-2.141v40.872l-17.484,39.951h-0.961v90.335v85.111
		L2654.171,498.996z M1946.81,462.292c-0.734-4.279-14.651-8.04-35.574-10.31c13.059-55.231,1.886-120.438-27.881-169.609
		c6.623-0.403,11.664-2.42,11.664-4.848c0-2.718-6.315-4.925-14.105-4.925c-1.312,0-2.576,0.068-3.782,0.185
		c-9.929-14.101-21.828-26.145-35.819-35.01v6.071h-3.979v-42.289h-1.594v35.822h-3.581v56.914h-20.697v7.959h20.697v148.533
		h-34.435l0.66,10.651 M1841.312,450.259c-1.888,0.088-3.746,0.188-5.572,0.298V302.253h5.572V450.259z M1841.312,294.294h-5.572
		v-7.962h1.594v-18.607h3.979V294.294z M1841.312,265.338h-3.979v-4.775h3.979V265.338z M1841.312,258.176h-3.979v-4.777h3.979
		V258.176z M1841.312,251.012h-3.979v-4.776h3.979V251.012z M1866.81,277.526c0,0.469,0.198,0.916,0.545,1.345h-20.209v-31.044
		c0,0,14.219,11.349,22.279,26.849C1867.784,275.481,1866.81,276.465,1866.81,277.526 M1898.859,450.799
		c18.983-81.295-8.482-145.869-14.725-157.984c-0.405-0.689-0.799-1.386-1.215-2.074c0.074-0.004,0.517,0.726,1.215,2.074
		c28.63,48.768,32.038,107.333,21.889,157.984C1906.638,450.865,1901.576,451.093,1898.859,450.799 M2191.445,367.649
		c0-0.266,0.213-0.475,0.477-0.476c0.265,0.001,0.476,0.21,0.476,0.476s-0.211,0.479-0.476,0.479
		C2191.658,368.127,2191.445,367.915,2191.445,367.649 M2222.31,273.628c0-0.506,0.407-0.914,0.915-0.916
		c0.505,0.002,0.915,0.41,0.915,0.916c0,0.509-0.41,0.914-0.915,0.917C2222.717,274.542,2222.31,274.137,2222.31,273.628"/>
	<polygon fill="#47BFEF" points="2986.282,498.996 -13.943,498.996 -13.424,450.18 2978.908,450.18 	"/>
	<path fill="#47BFEF" d="M651.87,420.355c-0.013,0.014-0.026,0.032-0.039,0.046h0.001c-1.31,1.626-2.513,3.197-3.592,4.689
		c-0.23,0.32-0.444,0.628-0.666,0.942c-1.384,1.972-2.561,3.81-3.484,5.468c-0.023,0.04-0.039,0.076-0.061,0.116
		c-1.028,1.857-1.766,3.507-2.155,4.873h-0.375v1.421v0.696v0.005v1.019v11.603"/>
	<rect x="1202.263" y="315.759" fill="#47BFEF" width="5.693" height="71.812"/>
	<path fill="#47BFEF" d="M1207.956,396.5v53.68h-2.86v-10.551v-1.719v-1.421c-0.957-0.16-1.889-0.335-2.833-0.501V396.5H1207.956z"
		/>
	<path fill="#47BFEF" d="M1076.677,383.531c0,23.773-6.915,44.865-17.587,58.047h7.623c10.679-13.179,17.603-34.262,17.603-58.047
		c0-39.036-18.637-70.842-41.962-72.253c0.425-0.03,0.85-0.038,1.275-0.046c-0.109-0.001-0.215-0.013-0.324-0.013
		c-1.735,0-3.446,0.174-5.128,0.504C1059.849,315.898,1076.677,346.448,1076.677,383.531"/>
	<path fill="#47BFEF" d="M1073.396,383.531c0-36.444-16.246-66.576-37.377-71.567c-0.171-0.041-0.342-0.079-0.514-0.116
		c-0.572-0.124-1.148-0.231-1.727-0.318c-0.075-0.012-0.15-0.025-0.226-0.036c-0.699-0.099-1.402-0.172-2.109-0.215
		c0.027-0.003,0.055-0.002,0.082-0.003c-0.571-0.036-1.146-0.056-1.723-0.056c-24.063,0-43.574,32.377-43.574,72.312
		c0,23.773,6.915,44.865,17.587,58.047h51.98C1066.472,428.399,1073.396,407.316,1073.396,383.531"/>
	<path fill="#70706F" d="M1033.778,311.529c0.579,0.087,1.155,0.194,1.727,0.317c0.172,0.037,0.343,0.076,0.514,0.117
		c0.183,0.043,0.367,0.077,0.549,0.124c0.533-0.138,1.07-0.258,1.609-0.363c-1.666-0.321-3.357-0.506-5.075-0.506
		c-0.525,0-1.051,0.021-1.577,0.057c0.68,0.044,1.355,0.122,2.027,0.218C1033.628,311.502,1033.702,311.518,1033.778,311.529"/>
	<path fill="#70706F" d="M1035.506,311.847c-0.572-0.125-1.148-0.231-1.727-0.318
		C1034.357,311.615,1034.934,311.723,1035.506,311.847"/>
	<path fill="#70706F" d="M1033.552,311.492c-0.672-0.095-1.347-0.173-2.027-0.217c-0.027,0.002-0.055,0.001-0.082,0.003
		C1032.15,311.32,1032.854,311.394,1033.552,311.492"/>
	<path fill="#47BFEF" d="M1086.889,383.531c0,23.773-6.918,44.865-17.593,58.047H1070c10.672-13.182,17.587-34.273,17.587-58.047
		c0-39.935-19.511-72.312-43.574-72.312c-0.129,0-0.257,0.011-0.385,0.013C1067.542,311.523,1086.889,343.776,1086.889,383.531"/>
	<path fill="#47BFEF" d="M1072.386,441.578h-2.385c-7.257,8.962-16.249,14.269-25.988,14.269c-0.134,0-0.268-0.011-0.402-0.013
		c-0.102,0.001-0.204,0.013-0.307,0.013c-1.737,0-3.452-0.172-5.137-0.502c-1.662,0.32-3.35,0.502-5.065,0.502
		c-0.546,0-1.093-0.015-1.64-0.053c-0.551,0.034-1.104,0.053-1.66,0.053c-9.739,0-18.731-5.307-25.987-14.269h-2.386
		c-1.815,0-3.281,1.471-3.281,3.281v10.905c0,1.811,1.466,3.276,3.281,3.276h70.957c1.815,0,3.281-1.466,3.281-3.276v-10.905
		C1075.667,443.048,1074.201,441.578,1072.386,441.578"/>
	<path fill="#47BFEF" d="M1066.713,441.578h-7.623c-5.979,7.385-13.139,12.27-20.922,13.767c1.684,0.33,3.399,0.502,5.137,0.502
		c0.102,0,0.204-0.012,0.306-0.013c-0.419-0.005-0.838-0.011-1.258-0.04C1051.469,455.242,1059.862,450.032,1066.713,441.578"/>
	<path fill="#47BFEF" d="M1029.803,455.846c0.556,0,1.109-0.019,1.66-0.053c-0.007,0-0.013,0-0.02,0
		c0.693-0.042,1.381-0.115,2.066-0.21c0.123-0.017,0.246-0.041,0.369-0.059c0.538-0.083,1.074-0.183,1.607-0.297
		c0.184-0.039,0.367-0.08,0.55-0.124c7.337-1.737,14.079-6.514,19.761-13.526h-51.981
		C1011.071,450.54,1020.063,455.846,1029.803,455.846"/>
	<path fill="#47BFEF" d="M1059.09,441.578h-3.295c-5.682,7.013-12.424,11.789-19.761,13.526c0.178-0.042,0.357-0.075,0.534-0.121
		c0.53,0.137,1.063,0.257,1.599,0.361C1045.951,453.847,1053.111,448.962,1059.09,441.578"/>
	<path fill="#47BFEF" d="M1043.612,455.833c0.134,0.002,0.268,0.014,0.401,0.014c9.74,0,18.732-5.308,25.988-14.27h-0.705
		C1062.115,450.445,1053.233,455.723,1043.612,455.833"/>
	<path fill="#47BFEF" d="M1069.296,441.578h-2.583c-6.851,8.454-15.243,13.664-24.359,14.216c0.419,0.029,0.838,0.035,1.258,0.04
		C1053.232,455.722,1062.115,450.446,1069.296,441.578"/>
	<path fill="#47BFEF" d="M1114.58,472.253v0.448h106.15V293.528h-7.026v-3.582h-1.404v-3.583h-1.207v-2.126v-1.176v-2.294
		c0-0.369-0.27-0.672-0.599-0.672c-0.336,0-0.6,0.303-0.6,0.672v2.294h-5.728v-2.294c0-0.369-0.27-0.672-0.6-0.672
		c-0.336,0-0.607,0.303-0.607,0.672v2.294h-6.018v-2.294c0-0.369-0.27-0.672-0.606-0.672c-0.33,0-0.6,0.303-0.6,0.672v2.294h-6.321
		v-2.294c0-0.369-0.27-0.672-0.606-0.672c-0.33,0-0.6,0.303-0.6,0.672v9.179v2.91v27.754h-5.623v1.341h-11.647v-3.131v-2.462v-1.793
		h-0.33l0.824-5.326l0.785-5.052c0.079-0.524-0.237-1.025-0.712-1.118c-0.468-0.088-0.917,0.264-0.995,0.788l-0.653,4.219h-2.702
		l0.184-1.16c0.079-0.523-0.237-1.024-0.705-1.117c-0.475-0.089-0.923,0.264-1.002,0.787l-0.231,1.49h-2.505l0.178-1.16
		c0.086-0.523-0.237-1.024-0.705-1.117c-0.468-0.089-0.916,0.264-1.002,0.787l-0.224,1.49h-2.524l0.599-3.889
		c0.086-0.524-0.237-1.025-0.705-1.118c-0.468-0.088-0.916,0.264-1.002,0.788l-1.654,10.708h-15.128v1.793h-1.905v54.39h-4.014
		v80.852c-5.425-2.336-11.12-5.784-11.12-5.784h-17.237v2.518l2.94,1.658L1114.58,472.253z M1206.875,284.237h3.019v2.126h-3.019
		V284.237z M1204.166,284.237h2.109v2.126h-2.109V284.237z M1200.25,284.237h2.709v2.126h-2.709V284.237z M1196.94,284.237h2.709
		v2.126h-2.709V284.237z M1192.426,284.237h3.309v2.126h-1.707v3.583h-1.602V284.237z M1189.414,284.237h2.406v5.709h-2.406V284.237
		z M1170.938,332.25h11.647v123.556h-11.647V332.25z M1166.976,309.239h2.697l-0.172,1.104h-2.696L1166.976,309.239z
		 M1166.667,311.266h2.696l-0.508,3.299h-2.702L1166.667,311.266z M1162.711,309.239h2.511l-0.171,1.104h-2.505L1162.711,309.239z
		 M1162.401,311.266h2.505l-0.508,3.299h-2.511L1162.401,311.266z M1158.434,309.239h2.524l-0.171,1.104h-2.518L1158.434,309.239z
		 M1158.124,311.266h2.518l-0.508,3.299h-2.517L1158.124,311.266z"/>
	<path fill="#47BFEF" d="M1305.304,454.332v4.53h-2.573c-9.029-3.671-26.784-14.37-31.897-19.063h0.052v-0.597h-0.35v-1.391h-0.811
		v-1.494h-0.428v-0.626h-0.078c0-0.116-0.039-0.22-0.116-0.306l-0.372-0.406c-0.151-0.168-0.401-0.168-0.557,0l-0.371,0.406
		c-0.078,0.086-0.121,0.189-0.121,0.306h-0.078v0.626h-0.423v0.497c-1.796-3.014-3.514-6.071-5-8.908v-58.18h4.75l2.34-2.958h0.276
		l3.351-3.985h-0.328c0.777-0.216,1.205-0.449,1.205-0.695c0-0.362-0.942-0.699-2.574-0.988v-1.892
		c1.632-0.29,2.574-0.626,2.574-0.992c0-0.406-1.188-0.786-3.209-1.094l-2.651-3.584h-1.408l-1.787-2.414h-0.833l-1.464-1.977
		h-5.583l-0.29-10.609h-1.17l-0.289,10.609h-5.579l-1.464,1.977h-0.837l-1.788,2.414h-1.403l-2.656,3.584
		c-2.021,0.308-3.204,0.688-3.204,1.094c0,0.366,0.942,0.702,2.574,0.992v1.892c-1.632,0.289-2.574,0.626-2.574,0.988
		c0,0.246,0.428,0.479,1.205,0.695h-0.332l3.355,3.985h0.276l2.34,2.958h4.75v61.263c-4.974,9.05-11.633,19.34-15.583,23.235h-0.985
		 M1268.959,456.642l0.069,0.009h-0.216L1268.959,456.642z"/>
	<path fill="#47BFEF" d="M821.504,488.65v-71.223h-21.696v1.156h-19.482v-1.156h-10.805V385.67h0.797v-1.331h-0.797v-0.666h-0.162
		l-2.028-4.579h-2.257v-3.322h1.166v-2.217h-1.166v-0.883h1.166v-2.218h-1.166v-17.283h1.166v-2.214h-1.166v-0.663h1.166v-2.214
		h-1.166v-12.441c3.103-2.828,7.362-8.992,7.362-9.552c0-0.318-0.151-0.611-0.404-0.841h0.027v-4.32h-1.813v-1.725h-6.98v-36.594
		c2.144-2.968,4.652-7.871,4.652-8.357c0-0.313-0.113-0.597-0.293-0.816h0.016v-4.189h-1.258v-1.143h-4.814v-14.371
		c1.716-2.309,3.803-6.374,3.803-6.762c0-0.558-0.447-1.004-0.991-1.004h-0.294v-4.597h-1.058v-0.889h-4.846v-4.852
		c0.433-0.176,0.692-0.401,0.692-0.649s-0.259-0.477-0.692-0.646v-2.898c0.66-0.221,1.075-0.531,1.075-0.876
		c0-0.347-0.415-0.657-1.075-0.873v-0.915c1.182-0.736,1.966-2.05,1.966-3.556c0-1.711-1.016-3.18-2.467-3.823l-0.432-5.673
		c0-0.461-0.25-0.857-0.616-1.07v-1.64c0.366-0.389,0.616-1.118,0.616-1.953c0-0.698-0.175-1.32-0.444-1.732
		c-0.132-0.262-0.318-0.453-0.539-0.533v-1.31c0.561-0.145,0.983-0.784,0.983-1.549c0-0.867-0.546-1.573-1.214-1.573
		c-0.674,0-1.218,0.706-1.218,1.573c0,0.765,0.42,1.404,0.978,1.549v1.31c-0.218,0.08-0.41,0.274-0.544,0.538
		c-0.264,0.409-0.434,1.032-0.434,1.728c0,0.835,0.245,1.564,0.612,1.953v1.64c-0.367,0.213-0.612,0.609-0.612,1.07l-0.434,5.673
		c-1.454,0.644-2.47,2.112-2.47,3.823c0,1.506,0.789,2.819,1.966,3.556v0.915c-0.657,0.216-1.077,0.526-1.077,0.873
		c0,0.345,0.42,0.655,1.077,0.876v2.898c-0.43,0.17-0.689,0.398-0.689,0.646s0.259,0.474,0.689,0.649v4.852h-4.848v0.889h-1.054
		v4.597h-0.293c-0.553,0-0.986,0.446-0.986,1.004c0,0.398,2.101,4.612,3.79,6.891v14.242h-4.811v1.143h-1.256v4.189h0.017
		c-0.184,0.22-0.291,0.503-0.291,0.816c0,0.492,2.529,5.575,4.647,8.525v36.426h-6.98v1.725h-1.808v4.32h0.027
		c-0.256,0.229-0.404,0.522-0.404,0.841c0,0.57,4.302,6.979,7.365,9.722v12.271h-1.169v2.214h1.169v0.663h-1.169v2.214h1.169v17.283
		h-1.169v2.218h1.169v0.883h-1.169v2.217h1.169v3.322h-2.265l-2.021,4.579h-0.164v0.666h-0.803v1.331h0.803v31.851
		c-0.334-0.078-0.868-0.147-1.514-0.183l-1.045-0.951c0.161-0.118,0.269-0.308,0.269-0.521c0-0.255-0.156-0.474-0.372-0.572v-0.326
		c0.159-0.105,0.256-0.306,0.256-0.528c0-0.302-0.175-0.552-0.407-0.609v-0.1c0.189-0.063,0.335-0.307,0.335-0.595
		s-0.146-0.531-0.335-0.599v-0.552c0.251-0.057,0.437-0.324,0.437-0.644c0-0.367-0.24-0.66-0.539-0.66
		c-0.302,0-0.544,0.293-0.544,0.66c0,0.319,0.191,0.587,0.436,0.644v0.552c-0.194,0.067-0.328,0.311-0.328,0.599
		s0.134,0.531,0.328,0.595v0.1c-0.231,0.058-0.406,0.308-0.406,0.609c0,0.223,0.102,0.423,0.253,0.528v0.326
		c-0.213,0.099-0.361,0.317-0.361,0.572c0,0.213,0.105,0.402,0.261,0.521l-1.045,0.951c-1.121,0.066-1.899,0.216-1.899,0.388
		c0,0.03,0.024,0.051,0.064,0.081c-4.781,1.552-8.272,6.449-8.272,12.246c0,0.835,0.073,1.654,0.21,2.449h-0.868
		c-0.186-5.222-3.332-9.604-7.618-11.15v-21.435h0.545v-0.905h-0.545v-0.453h-0.113l-1.379-3.124h-1.547v-2.266h0.798v-1.515h-0.798
		v-0.605h0.798v-1.515h-0.798v-11.791h0.798v-1.511h-0.798v-0.455h0.798v-1.512h-0.798v-8.482c2.121-1.937,5.027-6.145,5.027-6.524
		c0-0.218-0.102-0.417-0.272-0.574h0.016v-2.949h-1.236v-1.175h-4.763v-24.977c1.457-2.023,3.171-5.372,3.171-5.706
		c0-0.21-0.076-0.404-0.199-0.556h0.013v-2.853h-0.86v-0.784h-3.283v-9.805c1.166-1.576,2.591-4.354,2.591-4.617
		c0-0.38-0.304-0.69-0.673-0.69h-0.202v-3.13h-0.722v-0.605h-3.306v-3.313c0.291-0.122,0.472-0.274,0.472-0.444
		c0-0.168-0.181-0.321-0.472-0.442v-1.98c0.448-0.145,0.733-0.357,0.733-0.595c0-0.235-0.285-0.447-0.733-0.595v-0.623
		c0.801-0.506,1.34-1.403,1.34-2.43c0-1.164-0.693-2.165-1.684-2.61l-0.299-3.871c0-0.31-0.17-0.582-0.415-0.727v-1.118
		c0.245-0.268,0.415-0.764,0.415-1.334c0-0.478-0.113-0.902-0.294-1.183c-0.097-0.181-0.223-0.312-0.372-0.367v-0.894
		c0.383-0.094,0.666-0.531,0.666-1.053c0-0.593-0.369-1.075-0.825-1.075c-0.46,0-0.829,0.482-0.829,1.075
		c0,0.521,0.282,0.959,0.665,1.053v0.894c-0.148,0.055-0.278,0.192-0.369,0.369c-0.18,0.283-0.296,0.703-0.296,1.181
		c0,0.568,0.169,1.066,0.415,1.334v1.118c-0.246,0.145-0.415,0.417-0.415,0.727l-0.299,3.871c-0.989,0.445-1.687,1.446-1.687,2.61
		c0,1.026,0.542,1.924,1.347,2.43v0.623c-0.45,0.147-0.735,0.359-0.735,0.595c0,0.237,0.285,0.45,0.735,0.595v1.98
		c-0.296,0.121-0.477,0.274-0.477,0.442c0,0.17,0.181,0.322,0.477,0.444v3.313h-3.31v0.605h-0.722v3.13h-0.197
		c-0.375,0-0.676,0.311-0.676,0.69c0,0.271,1.433,3.146,2.591,4.703v9.719h-3.283v0.784h-0.86v2.853h0.014
		c-0.127,0.151-0.2,0.346-0.2,0.556c0,0.34,1.722,3.809,3.171,5.82v24.862h-4.763v1.175h-1.239v2.949h0.019
		c-0.17,0.157-0.272,0.356-0.272,0.574c0,0.388,2.933,4.766,5.024,6.632v8.375h-0.798v1.512h0.798v0.455h-0.798v1.511h0.798v11.791
		h-0.798v1.515h0.798v0.605h-0.798v1.515h0.798v2.266h-1.541l-1.382,3.124h-0.11v0.453h-0.55v0.905h0.55v19.345
		c-0.895-0.626-1.873-1.118-2.907-1.455c0.038-0.03,0.062-0.051,0.062-0.081c0-0.172-0.776-0.321-1.899-0.388l-1.043-0.951
		c0.156-0.118,0.264-0.308,0.264-0.521c0-0.255-0.151-0.474-0.366-0.572v-0.326c0.151-0.105,0.256-0.306,0.256-0.528
		c0-0.302-0.178-0.552-0.41-0.609v-0.1c0.192-0.063,0.331-0.307,0.331-0.595s-0.139-0.531-0.331-0.599v-0.552
		c0.248-0.057,0.434-0.324,0.434-0.644c0-0.367-0.242-0.66-0.539-0.66c-0.299,0-0.539,0.293-0.539,0.66
		c0,0.319,0.186,0.587,0.434,0.644v0.552c-0.194,0.067-0.334,0.311-0.334,0.599s0.14,0.531,0.334,0.595v0.1
		c-0.234,0.058-0.407,0.308-0.407,0.609c0,0.223,0.1,0.423,0.254,0.528v0.326c-0.176,0.08-0.297,0.241-0.342,0.433
		c-0.098-1.901-1.272-3.485-2.864-4c0.016-0.011,0.021-0.022,0.021-0.033c0-0.056-0.269-0.106-0.662-0.131l-0.364-0.329
		c0.057-0.04,0.092-0.104,0.092-0.183c0-0.089-0.049-0.164-0.124-0.194v-0.116c0.054-0.035,0.089-0.107,0.089-0.186
		c0-0.103-0.059-0.187-0.143-0.213v-0.032c0.067-0.021,0.116-0.105,0.116-0.21c0-0.097-0.049-0.181-0.116-0.202v-0.19
		c0.086-0.022,0.153-0.114,0.153-0.225c0-0.129-0.086-0.229-0.188-0.229c-0.1,0-0.189,0.1-0.189,0.229
		c0,0.11,0.065,0.202,0.151,0.225v0.19c-0.062,0.021-0.116,0.105-0.116,0.202c0,0.104,0.054,0.189,0.116,0.21v0.032
		c-0.081,0.026-0.14,0.11-0.14,0.213c0,0.078,0.035,0.15,0.086,0.186v0.116c-0.072,0.03-0.124,0.105-0.124,0.194
		c0,0.078,0.038,0.143,0.092,0.183l-0.364,0.329c-0.388,0.024-0.66,0.075-0.66,0.131c0,0.011,0.006,0.022,0.022,0.033
		c-1.66,0.539-2.872,2.236-2.872,4.256c0,0.609,0.111,1.194,0.318,1.728c-0.086,0.074-0.129,0.15-0.129,0.229
		c0,0.086,0.054,0.172,0.151,0.25v2.22h0.713c-0.654,0.631-1.247,1.345-1.764,2.126c0.065-0.317,0.102-0.639,0.102-0.978
		c0-2.01-1.215-3.712-2.871-4.248c0.011-0.014,0.019-0.019,0.019-0.033c0-0.062-0.273-0.106-0.66-0.132l-0.361-0.331
		c0.056-0.043,0.091-0.11,0.091-0.181c0-0.086-0.051-0.167-0.126-0.199v-0.113c0.051-0.035,0.089-0.104,0.089-0.183
		c0-0.105-0.06-0.191-0.141-0.21v-0.038c0.068-0.022,0.114-0.108,0.114-0.208c0-0.103-0.046-0.186-0.114-0.21v-0.188
		c0.087-0.021,0.149-0.112,0.149-0.224c0-0.126-0.081-0.229-0.186-0.229s-0.189,0.104-0.189,0.229c0,0.111,0.065,0.202,0.148,0.224
		v0.188c-0.064,0.024-0.115,0.107-0.115,0.21c0,0.1,0.051,0.186,0.115,0.208v0.038c-0.078,0.019-0.14,0.104-0.14,0.21
		c0,0.078,0.041,0.147,0.095,0.183v0.113c-0.081,0.032-0.133,0.113-0.133,0.199c0,0.07,0.035,0.138,0.095,0.181l-0.361,0.331
		c-0.393,0.025-0.66,0.07-0.66,0.132c0,0.015,0.005,0.02,0.019,0.033c-0.553,0.172-1.054,0.487-1.476,0.886
		c-0.418-1.347-1.41-2.408-2.654-2.81c0.011-0.008,0.022-0.021,0.022-0.021c0-0.064-0.27-0.115-0.66-0.141l-0.367-0.328
		c0.054-0.041,0.092-0.113,0.092-0.186c0-0.084-0.051-0.162-0.124-0.197v-0.11c0.054-0.038,0.086-0.11,0.086-0.186
		c0-0.105-0.059-0.191-0.14-0.21v-0.032c0.068-0.027,0.116-0.108,0.116-0.211s-0.048-0.186-0.116-0.207v-0.194
		c0.086-0.016,0.151-0.112,0.151-0.223c0-0.127-0.083-0.228-0.186-0.228c-0.105,0-0.188,0.101-0.188,0.228
		c0,0.11,0.064,0.207,0.15,0.223v0.194c-0.067,0.021-0.116,0.104-0.116,0.207s0.049,0.184,0.116,0.211v0.032
		c-0.08,0.019-0.14,0.104-0.14,0.21c0,0.075,0.035,0.147,0.084,0.186v0.11c-0.07,0.035-0.122,0.113-0.122,0.197
		c0,0.072,0.038,0.145,0.092,0.186l-0.369,0.328c-0.385,0.025-0.657,0.076-0.657,0.135c0,0,0.008,0.02,0.021,0.027
		c-0.237,0.076-0.463,0.181-0.679,0.302v-6.651c0.518-0.428,0.801-0.884,0.801-1.353c0-0.433-0.243-0.856-0.69-1.252
		c1.096-2.872,1.708-6.029,1.708-9.348c0-10.881-6.56-20.072-15.533-22.986c0.078-0.049,0.113-0.101,0.113-0.157
		c0-0.32-1.454-0.598-3.558-0.729l-1.967-1.784c0.305-0.213,0.504-0.571,0.504-0.973c0-0.477-0.28-0.889-0.682-1.08v-0.604
		c0.281-0.202,0.475-0.574,0.475-0.999c0-0.561-0.326-1.03-0.763-1.14v-0.181c0.356-0.127,0.617-0.582,0.617-1.126
		c0-0.545-0.261-1-0.617-1.124v-1.033c0.464-0.111,0.817-0.612,0.817-1.213c0-0.685-0.456-1.236-1.022-1.236
		c-0.557,0-1.015,0.552-1.015,1.236c0,0.601,0.356,1.102,0.822,1.213v1.033c-0.359,0.124-0.623,0.579-0.623,1.124
		c0,0.544,0.264,0.999,0.623,1.126v0.181c-0.438,0.109-0.768,0.579-0.768,1.14c0,0.425,0.191,0.797,0.479,0.999v0.604
		c-0.401,0.191-0.681,0.604-0.681,1.08c0,0.401,0.196,0.76,0.498,0.973l-1.966,1.784c-2.107,0.131-3.562,0.408-3.562,0.729
		c0,0.057,0.041,0.108,0.116,0.157c-8.973,2.914-15.527,12.105-15.527,22.986c0,2.303,0.293,4.522,0.846,6.627
		c-0.668-0.541-1.417-0.962-2.225-1.226c0.024-0.019,0.04-0.033,0.04-0.052c0-0.105-0.485-0.197-1.183-0.24l-0.651-0.592
		c0.102-0.07,0.167-0.189,0.167-0.323c0-0.162-0.095-0.297-0.229-0.353v-0.205c0.097-0.067,0.156-0.191,0.156-0.334
		c0-0.184-0.105-0.337-0.251-0.377v-0.061c0.116-0.043,0.208-0.19,0.208-0.377c0-0.18-0.092-0.331-0.208-0.371v-0.343
		c0.154-0.032,0.272-0.199,0.272-0.4c0-0.224-0.15-0.412-0.339-0.412c-0.183,0-0.337,0.188-0.337,0.412
		c0,0.201,0.119,0.368,0.272,0.4v0.343c-0.118,0.04-0.21,0.191-0.21,0.371c0,0.187,0.092,0.334,0.21,0.377v0.061
		c-0.145,0.04-0.256,0.193-0.256,0.377c0,0.143,0.068,0.267,0.162,0.334v0.205c-0.135,0.056-0.226,0.19-0.226,0.353
		c0,0.134,0.064,0.253,0.167,0.323l-0.652,0.592c-0.701,0.043-1.183,0.135-1.183,0.24c0,0.019,0.014,0.033,0.038,0.052
		c-2.977,0.967-5.151,4.017-5.151,7.623c0,1.1,0.2,2.149,0.566,3.102c-0.146,0.132-0.226,0.273-0.226,0.417
		c0,0.041,0.002,0.081,0.016,0.12h-2.19v3.676h-1.872v5.112h-3.071v-0.582h-1.434v-2.923c0.125-0.102,0.192-0.213,0.192-0.329
		c0-0.107-0.057-0.207-0.167-0.304c0.266-0.703,0.417-1.468,0.417-2.276c0-2.647-1.603-4.887-3.782-5.598
		c0.019-0.011,0.027-0.027,0.027-0.027c0-0.089-0.355-0.153-0.864-0.188l-0.48-0.431c0.07-0.057,0.118-0.144,0.118-0.24
		c0-0.115-0.064-0.218-0.161-0.261v-0.146c0.067-0.054,0.11-0.146,0.11-0.245c0-0.138-0.075-0.254-0.186-0.274v-0.05
		c0.089-0.026,0.154-0.14,0.154-0.274c0-0.131-0.065-0.239-0.154-0.274v-0.251c0.119-0.021,0.202-0.15,0.202-0.296
		c0-0.162-0.113-0.299-0.247-0.299c-0.138,0-0.248,0.137-0.248,0.299c0,0.146,0.086,0.275,0.199,0.296v0.251
		c-0.089,0.035-0.151,0.144-0.151,0.274c0,0.135,0.062,0.248,0.151,0.274v0.05c-0.107,0.021-0.186,0.137-0.186,0.274
		c0,0.1,0.051,0.191,0.113,0.245v0.146c-0.094,0.043-0.159,0.146-0.159,0.261c0,0.097,0.044,0.184,0.119,0.24l-0.479,0.431
		c-0.51,0.035-0.868,0.1-0.868,0.183c0,0,0.013,0.022,0.03,0.033c-1.754,0.571-3.128,2.123-3.605,4.089h-0.18
		c0-0.029,0.003-0.057,0.003-0.083c0-2.721-1.641-5.014-3.88-5.741c0.017-0.011,0.03-0.029,0.03-0.043
		c0-0.08-0.366-0.147-0.889-0.18l-0.094-0.09v-6.438c0.716-0.587,1.096-1.212,1.096-1.858c0-0.595-0.326-1.171-0.943-1.721
		c1.512-3.946,2.347-8.286,2.347-12.845c0-14.964-9.011-27.593-21.344-31.593c0.103-0.071,0.159-0.14,0.159-0.216
		c0-0.442-2.001-0.827-4.894-1.002l-2.702-2.451c0.415-0.297,0.687-0.784,0.687-1.337c0-0.657-0.386-1.225-0.943-1.479V346.7
		c0.393-0.276,0.66-0.789,0.66-1.376c0-0.771-0.45-1.412-1.051-1.56v-0.256c0.493-0.169,0.857-0.797,0.857-1.543
		c0-0.749-0.364-1.377-0.857-1.549v-1.415c0.644-0.153,1.126-0.841,1.126-1.667c0-0.94-0.627-1.703-1.4-1.703
		c-0.771,0-1.399,0.763-1.399,1.703c0,0.826,0.485,1.514,1.127,1.667v1.415c-0.491,0.172-0.855,0.8-0.855,1.549
		c0,0.746,0.364,1.374,0.855,1.543v0.256c-0.599,0.147-1.051,0.789-1.051,1.56c0,0.587,0.267,1.1,0.657,1.376v0.835
		c-0.552,0.255-0.94,0.822-0.94,1.479c0,0.553,0.275,1.04,0.687,1.337l-2.702,2.451c-2.893,0.175-4.895,0.56-4.895,1.002
		c0,0.076,0.057,0.145,0.162,0.216c-12.338,4-21.343,16.629-21.343,31.593c0,4.559,0.835,8.898,2.343,12.845
		c-0.614,0.55-0.943,1.126-0.943,1.721c0,0.646,0.383,1.271,1.099,1.858v6.438l-0.094,0.09c-0.525,0.032-0.889,0.1-0.889,0.18
		c0,0.014,0.014,0.032,0.03,0.043c-2.241,0.728-3.882,3.021-3.882,5.741c0,0.026,0.003,0.054,0.008,0.083h-0.186
		c-0.474-1.966-1.845-3.518-3.601-4.089c0.021-0.011,0.029-0.027,0.029-0.027c0-0.089-0.355-0.153-0.867-0.188l-0.48-0.431
		c0.076-0.057,0.122-0.144,0.122-0.24c0-0.115-0.065-0.218-0.165-0.261v-0.146c0.068-0.054,0.116-0.146,0.116-0.245
		c0-0.138-0.084-0.254-0.189-0.274v-0.05c0.089-0.026,0.154-0.14,0.154-0.274c0-0.131-0.065-0.239-0.154-0.274v-0.251
		c0.116-0.021,0.203-0.15,0.203-0.296c0-0.162-0.108-0.299-0.248-0.299c-0.135,0-0.248,0.137-0.248,0.299
		c0,0.146,0.083,0.275,0.199,0.296v0.251c-0.086,0.035-0.148,0.144-0.148,0.274c0,0.135,0.062,0.248,0.148,0.274v0.05
		c-0.108,0.021-0.183,0.137-0.183,0.274c0,0.1,0.043,0.191,0.113,0.245v0.146c-0.1,0.043-0.167,0.146-0.167,0.261
		c0,0.097,0.046,0.184,0.119,0.24l-0.474,0.431c-0.515,0.035-0.871,0.1-0.871,0.183c0,0,0.014,0.022,0.027,0.033
		c-2.179,0.711-3.776,2.95-3.776,5.598c0,0.809,0.145,1.573,0.414,2.276c-0.11,0.097-0.167,0.196-0.167,0.304
		c0,0.116,0.07,0.228,0.197,0.329v2.923h-1.441v0.582h-3.071v-5.112h-1.872v-3.676h-2.19c0.013-0.039,0.016-0.079,0.016-0.12
		c0-0.144-0.078-0.285-0.226-0.417c0.366-0.952,0.568-2.002,0.568-3.102c0-3.606-2.174-6.656-5.151-7.623
		c0.024-0.019,0.038-0.033,0.038-0.052c0-0.105-0.482-0.197-1.18-0.24l-0.654-0.592c0.102-0.07,0.166-0.189,0.166-0.323
		c0-0.162-0.091-0.297-0.226-0.353v-0.205c0.092-0.067,0.162-0.191,0.162-0.334c0-0.184-0.116-0.337-0.256-0.377v-0.061
		c0.119-0.043,0.205-0.19,0.205-0.377c0-0.18-0.086-0.331-0.205-0.371v-0.343c0.154-0.032,0.269-0.199,0.269-0.4
		c0-0.224-0.15-0.412-0.339-0.412c-0.183,0-0.334,0.188-0.334,0.412c0,0.201,0.118,0.368,0.269,0.4v0.343
		c-0.118,0.04-0.202,0.191-0.202,0.371c0,0.187,0.084,0.334,0.202,0.377v0.061c-0.143,0.04-0.25,0.193-0.25,0.377
		c0,0.143,0.062,0.267,0.156,0.334v0.205c-0.132,0.056-0.224,0.19-0.224,0.353c0,0.134,0.065,0.253,0.162,0.323l-0.652,0.592
		c-0.698,0.043-1.177,0.135-1.177,0.24c0,0.019,0.008,0.033,0.035,0.052c-0.811,0.264-1.554,0.685-2.22,1.226
		c0.547-2.104,0.843-4.324,0.843-6.627c0-10.881-6.556-20.072-15.527-22.986c0.076-0.049,0.113-0.101,0.113-0.157
		c0-0.32-1.457-0.598-3.561-0.729l-1.964-1.784c0.299-0.213,0.499-0.571,0.499-0.973c0-0.477-0.281-0.889-0.685-1.08v-0.604
		c0.288-0.202,0.48-0.574,0.48-0.999c0-0.561-0.329-1.03-0.765-1.14v-0.181c0.358-0.127,0.622-0.582,0.622-1.126
		c0-0.545-0.264-1-0.622-1.124v-1.033c0.466-0.111,0.821-0.612,0.821-1.213c0-0.685-0.46-1.236-1.021-1.236
		c-0.563,0-1.015,0.552-1.015,1.236c0,0.601,0.35,1.102,0.819,1.213v1.033c-0.358,0.124-0.622,0.579-0.622,1.124
		c0,0.544,0.264,0.999,0.622,1.126v0.181c-0.439,0.109-0.765,0.579-0.765,1.14c0,0.425,0.191,0.797,0.477,0.999v0.604
		c-0.402,0.191-0.682,0.604-0.682,1.08c0,0.401,0.199,0.76,0.498,0.973l-1.966,1.784c-2.107,0.131-3.562,0.408-3.562,0.729
		c0,0.057,0.041,0.108,0.119,0.157c-8.976,2.914-15.53,12.105-15.53,22.986c0,3.318,0.609,6.476,1.705,9.348
		c-0.447,0.396-0.687,0.819-0.687,1.252c0,0.469,0.283,0.925,0.8,1.353v6.651c-0.218-0.121-0.444-0.226-0.686-0.302
		c0.016-0.008,0.024-0.021,0.024-0.021c0-0.064-0.27-0.115-0.66-0.141l-0.364-0.328c0.057-0.041,0.094-0.113,0.094-0.186
		c0-0.084-0.054-0.162-0.126-0.197v-0.11c0.051-0.038,0.086-0.11,0.086-0.186c0-0.105-0.059-0.191-0.14-0.21v-0.032
		c0.065-0.027,0.116-0.108,0.116-0.211s-0.051-0.186-0.116-0.207v-0.194c0.086-0.016,0.153-0.112,0.153-0.223
		c0-0.127-0.088-0.228-0.188-0.228c-0.108,0-0.189,0.101-0.189,0.228c0,0.11,0.065,0.207,0.151,0.223v0.194
		c-0.07,0.021-0.116,0.104-0.116,0.207s0.046,0.184,0.116,0.211v0.032c-0.081,0.019-0.145,0.104-0.145,0.21
		c0,0.075,0.037,0.147,0.091,0.186v0.11c-0.072,0.035-0.124,0.113-0.124,0.197c0,0.072,0.033,0.145,0.089,0.186l-0.366,0.328
		c-0.388,0.025-0.655,0.076-0.655,0.135c0,0,0.006,0.02,0.022,0.027c-1.245,0.401-2.239,1.463-2.656,2.81
		c-0.426-0.398-0.927-0.714-1.479-0.886c0.016-0.014,0.024-0.019,0.024-0.033c0-0.062-0.272-0.106-0.66-0.132l-0.361-0.331
		c0.054-0.043,0.092-0.11,0.092-0.181c0-0.086-0.057-0.167-0.13-0.199v-0.113c0.054-0.035,0.089-0.104,0.089-0.183
		c0-0.105-0.062-0.191-0.142-0.21v-0.038c0.064-0.022,0.118-0.108,0.118-0.208c0-0.103-0.054-0.186-0.118-0.21v-0.188
		c0.091-0.021,0.153-0.112,0.153-0.224c0-0.126-0.086-0.229-0.186-0.229c-0.108,0-0.191,0.104-0.191,0.229
		c0,0.111,0.067,0.202,0.151,0.224v0.188c-0.065,0.024-0.116,0.107-0.116,0.21c0,0.1,0.051,0.186,0.116,0.208v0.038
		c-0.081,0.019-0.14,0.104-0.14,0.21c0,0.078,0.037,0.147,0.086,0.183v0.113c-0.076,0.032-0.127,0.113-0.127,0.199
		c0,0.07,0.038,0.138,0.097,0.181l-0.366,0.331c-0.388,0.025-0.658,0.07-0.658,0.132c0,0.015,0.006,0.02,0.019,0.033
		c-1.659,0.536-2.869,2.238-2.869,4.248c0,0.339,0.035,0.66,0.098,0.978c-0.512-0.781-1.105-1.495-1.762-2.126h0.716v-2.22
		c0.097-0.078,0.148-0.164,0.148-0.25c0-0.078-0.043-0.154-0.126-0.229c0.202-0.533,0.312-1.118,0.312-1.728
		c0-2.02-1.209-3.717-2.871-4.256c0.013-0.011,0.019-0.022,0.019-0.033c0-0.056-0.267-0.106-0.658-0.131l-0.361-0.329
		c0.057-0.04,0.092-0.104,0.092-0.183c0-0.089-0.051-0.164-0.127-0.194v-0.116c0.057-0.035,0.089-0.107,0.089-0.186
		c0-0.103-0.059-0.187-0.14-0.213v-0.032c0.065-0.021,0.113-0.105,0.113-0.21c0-0.097-0.048-0.181-0.113-0.202v-0.19
		c0.086-0.022,0.151-0.114,0.151-0.225c0-0.129-0.086-0.229-0.189-0.229c-0.105,0-0.188,0.1-0.188,0.229
		c0,0.11,0.064,0.202,0.151,0.225v0.19c-0.065,0.021-0.116,0.105-0.116,0.202c0,0.104,0.051,0.189,0.116,0.21v0.032
		c-0.081,0.026-0.143,0.11-0.143,0.213c0,0.078,0.038,0.15,0.091,0.186v0.116c-0.075,0.03-0.129,0.105-0.129,0.194
		c0,0.078,0.035,0.143,0.089,0.183l-0.358,0.329c-0.388,0.024-0.66,0.075-0.66,0.131c0,0.011,0.008,0.022,0.021,0.033
		c-1.589,0.515-2.769,2.099-2.861,4.003c-0.045-0.194-0.172-0.355-0.347-0.436v-0.326c0.156-0.105,0.256-0.306,0.256-0.528
		c0-0.302-0.173-0.552-0.407-0.609v-0.1c0.194-0.063,0.332-0.307,0.332-0.595s-0.138-0.531-0.332-0.599v-0.552
		c0.251-0.057,0.437-0.324,0.437-0.644c0-0.367-0.24-0.66-0.542-0.66c-0.299,0-0.541,0.293-0.541,0.66
		c0,0.319,0.186,0.587,0.433,0.644v0.552c-0.188,0.067-0.331,0.311-0.331,0.599s0.143,0.531,0.331,0.595v0.1
		c-0.231,0.058-0.406,0.308-0.406,0.609c0,0.223,0.105,0.423,0.258,0.528v0.326c-0.218,0.099-0.366,0.317-0.366,0.572
		c0,0.213,0.102,0.402,0.267,0.521l-1.048,0.951c-1.124,0.066-1.897,0.216-1.897,0.388c0,0.03,0.019,0.051,0.062,0.081
		c-1.037,0.337-2.015,0.829-2.907,1.455v-19.345h0.545v-0.905h-0.545v-0.453h-0.11l-1.385-3.124h-1.54v-2.266h0.797v-1.515h-0.797
		v-0.605h0.797v-1.515h-0.797v-11.791h0.797v-1.511h-0.797v-0.455h0.797v-1.512h-0.797v-8.482c2.117-1.937,5.023-6.145,5.023-6.524
		c0-0.218-0.102-0.417-0.274-0.574h0.019v-2.949h-1.234v-1.175h-4.763v-24.977c1.455-2.023,3.168-5.372,3.168-5.706
		c0-0.21-0.073-0.404-0.197-0.556h0.011v-2.853h-0.859v-0.784h-3.284v-9.805c1.172-1.576,2.592-4.354,2.592-4.617
		c0-0.38-0.3-0.69-0.677-0.69h-0.196v-3.13h-0.722v-0.605h-3.308v-3.313c0.293-0.122,0.471-0.274,0.471-0.444
		c0-0.168-0.178-0.321-0.471-0.442v-1.98c0.447-0.145,0.73-0.357,0.73-0.595c0-0.235-0.283-0.447-0.73-0.595v-0.623
		c0.803-0.506,1.341-1.403,1.341-2.43c0-1.164-0.692-2.165-1.686-2.61l-0.294-3.871c0-0.31-0.169-0.582-0.423-0.727v-1.118
		c0.254-0.268,0.423-0.764,0.423-1.334c0-0.478-0.118-0.902-0.299-1.183c-0.089-0.181-0.221-0.312-0.372-0.367v-0.894
		c0.386-0.094,0.671-0.531,0.671-1.053c0-0.593-0.374-1.075-0.829-1.075c-0.458,0-0.83,0.482-0.83,1.075
		c0,0.521,0.286,0.959,0.665,1.053v0.894c-0.148,0.055-0.277,0.192-0.372,0.369c-0.18,0.283-0.293,0.703-0.293,1.181
		c0,0.568,0.17,1.066,0.417,1.334v1.118c-0.247,0.145-0.417,0.417-0.417,0.727l-0.296,3.871c-0.992,0.445-1.684,1.446-1.684,2.61
		c0,1.026,0.536,1.924,1.339,2.43v0.623c-0.447,0.147-0.733,0.359-0.733,0.595c0,0.237,0.286,0.45,0.733,0.595v1.98
		c-0.294,0.121-0.472,0.274-0.472,0.442c0,0.17,0.178,0.322,0.472,0.444v3.313h-3.306v0.605h-0.724v3.13h-0.197
		c-0.374,0-0.676,0.311-0.676,0.69c0,0.271,1.436,3.146,2.589,4.703v9.719h-3.284v0.784h-0.857v2.853h0.011
		c-0.124,0.151-0.197,0.346-0.197,0.556c0,0.34,1.724,3.809,3.174,5.82v24.862h-4.766v1.175h-1.236v2.949h0.019
		c-0.173,0.157-0.275,0.356-0.275,0.574c0,0.388,2.939,4.766,5.024,6.632v8.375h-0.792v1.512h0.792v0.455h-0.792v1.511h0.792v11.791
		h-0.792v1.515h0.792v0.605h-0.792v1.515h0.792v2.266h-1.541l-1.382,3.124h-0.113v0.453h-0.542v0.905h0.542v21.435
		c-4.286,1.546-7.424,5.924-7.618,11.15h-0.873c0.14-0.795,0.213-1.614,0.213-2.449c0-5.797-3.489-10.694-8.27-12.246
		c0.038-0.03,0.059-0.051,0.059-0.081c0-0.172-0.773-0.321-1.894-0.388l-1.05-0.951c0.161-0.118,0.269-0.308,0.269-0.521
		c0-0.255-0.151-0.474-0.366-0.572v-0.326c0.153-0.105,0.253-0.306,0.253-0.528c0-0.302-0.172-0.552-0.404-0.609v-0.1
		c0.191-0.063,0.329-0.307,0.329-0.595s-0.138-0.531-0.329-0.599v-0.552c0.248-0.057,0.436-0.324,0.436-0.644
		c0-0.367-0.245-0.66-0.544-0.66c-0.296,0-0.541,0.293-0.541,0.66c0,0.319,0.188,0.587,0.436,0.644v0.552
		c-0.191,0.067-0.331,0.311-0.331,0.599s0.14,0.531,0.331,0.595v0.1c-0.232,0.058-0.407,0.308-0.407,0.609
		c0,0.223,0.103,0.423,0.254,0.528v0.326c-0.213,0.099-0.361,0.317-0.361,0.572c0,0.213,0.107,0.402,0.264,0.521l-1.048,0.951
		c-0.647,0.035-1.178,0.104-1.512,0.183V385.67h0.8v-1.331h-0.8v-0.666h-0.164l-2.023-4.579h-2.26v-3.322h1.166v-2.217h-1.166
		v-0.883h1.166v-2.218h-1.166v-17.283h1.166v-2.214h-1.166v-0.663h1.166v-2.214h-1.166v-12.441c3.1-2.828,7.362-8.992,7.362-9.552
		c0-0.318-0.151-0.611-0.401-0.841h0.027v-4.32h-1.813v-1.725h-6.98v-36.594c2.142-2.968,4.649-7.871,4.649-8.357
		c0-0.313-0.113-0.597-0.296-0.816h0.024v-4.189h-1.26v-1.143h-4.811v-14.371c1.707-2.309,3.792-6.374,3.792-6.762
		c0-0.558-0.439-1.004-0.985-1.004h-0.294v-4.597h-1.056v-0.889h-4.849v-4.852c0.431-0.176,0.692-0.401,0.692-0.649
		s-0.261-0.477-0.692-0.646v-2.898c0.66-0.221,1.077-0.531,1.077-0.876c0-0.347-0.417-0.657-1.077-0.873v-0.915
		c1.18-0.736,1.969-2.05,1.969-3.556c0-1.711-1.018-3.18-2.473-3.823l-0.431-5.673c0-0.461-0.248-0.857-0.614-1.07v-1.64
		c0.366-0.389,0.614-1.118,0.614-1.953c0-0.698-0.169-1.32-0.439-1.732c-0.132-0.262-0.32-0.453-0.538-0.533v-1.31
		c0.56-0.145,0.977-0.784,0.977-1.549c0-0.867-0.541-1.573-1.218-1.573c-0.67,0-1.212,0.706-1.212,1.573
		c0,0.765,0.421,1.404,0.981,1.549v1.31c-0.226,0.08-0.41,0.274-0.544,0.538c-0.267,0.409-0.437,1.032-0.437,1.728
		c0,0.835,0.248,1.564,0.615,1.953v1.64c-0.367,0.213-0.615,0.609-0.615,1.07l-0.433,5.673c-1.452,0.644-2.47,2.112-2.47,3.823
		c0,1.506,0.789,2.819,1.966,3.556v0.915c-0.657,0.216-1.072,0.526-1.072,0.873c0,0.345,0.415,0.655,1.072,0.876v2.898
		c-0.431,0.17-0.692,0.398-0.692,0.646s0.261,0.474,0.692,0.649v4.852h-4.849v0.889h-1.056v4.597h-0.293
		c-0.542,0-0.986,0.446-0.986,1.004c0,0.398,2.101,4.612,3.795,6.891v14.242h-4.811v1.143h-1.258v4.189h0.019
		c-0.183,0.22-0.294,0.503-0.294,0.816c0,0.492,2.527,5.575,4.65,8.525v36.426h-6.983v1.725h-1.807v4.32h0.024
		c-0.251,0.229-0.404,0.522-0.404,0.841c0,0.57,4.305,6.979,7.362,9.722v12.271h-1.161v2.214h1.161v0.663h-1.161v2.214h1.161v17.283
		h-1.161v2.218h1.161v0.883h-1.161v2.217h1.161v3.322h-2.257l-2.024,4.579h-0.164v0.666h-0.802v1.331h0.802v31.757h-10.805v1.156
		H343.41v-1.156h-21.694v71.223H821.504z M752.146,205.853c0-0.552,0.291-0.999,0.651-0.999c0.356,0,0.652,0.447,0.652,0.999
		c0,0.555-0.296,1.002-0.652,1.002C752.437,206.855,752.146,206.408,752.146,205.853 M736.233,411.309
		c0-0.234,0.127-0.414,0.291-0.414c0.162,0,0.288,0.18,0.288,0.414c0,0.229-0.126,0.418-0.288,0.418
		C736.36,411.727,736.233,411.538,736.233,411.309 M707.029,277.206c0-0.378,0.202-0.683,0.445-0.683
		c0.245,0,0.444,0.305,0.444,0.683c0,0.377-0.199,0.684-0.444,0.684C707.231,277.889,707.029,277.583,707.029,277.206
		 M691.89,411.309c0-0.234,0.127-0.414,0.291-0.414c0.159,0,0.288,0.18,0.288,0.414c0,0.229-0.129,0.418-0.288,0.418
		C692.017,411.727,691.89,411.538,691.89,411.309 M691.688,416.045c0.04,0.14,0.124,0.256,0.237,0.342l-0.286,0.256
		C691.666,416.449,691.688,416.247,691.688,416.045 M687.558,409.47c0-0.079,0.041-0.146,0.097-0.146
		c0.057,0,0.097,0.067,0.097,0.146c0,0.078-0.04,0.142-0.097,0.142C687.599,409.612,687.558,409.548,687.558,409.47
		 M678.949,415.046c0-0.078,0.046-0.146,0.105-0.146c0.051,0,0.1,0.068,0.1,0.146c0,0.081-0.049,0.147-0.1,0.147
		C678.995,415.194,678.949,415.127,678.949,415.046 M672.57,413.128c0-0.081,0.043-0.144,0.099-0.144
		c0.057,0,0.103,0.062,0.103,0.144s-0.046,0.147-0.103,0.147C672.613,413.276,672.57,413.209,672.57,413.128 M650.365,361.894
		c0-0.431,0.242-0.784,0.544-0.784c0.301,0,0.544,0.354,0.544,0.784c0,0.433-0.243,0.789-0.544,0.789
		C650.607,362.683,650.365,362.327,650.365,361.894 M625.853,398.441c0-0.147,0.084-0.264,0.183-0.264
		c0.1,0,0.183,0.116,0.183,0.264c0,0.144-0.083,0.259-0.183,0.259C625.937,398.7,625.853,398.584,625.853,398.441 M605.722,407.554
		c0-0.11,0.059-0.194,0.132-0.194c0.076,0,0.135,0.084,0.135,0.194c0,0.104-0.059,0.188-0.135,0.188
		C605.781,407.743,605.722,407.659,605.722,407.554 M567.591,337.249c0-0.597,0.334-1.083,0.749-1.083s0.746,0.486,0.746,1.083
		c0,0.598-0.331,1.079-0.746,1.079S567.591,337.846,567.591,337.249 M531.135,407.554c0-0.11,0.059-0.194,0.132-0.194
		c0.073,0,0.129,0.084,0.129,0.194c0,0.104-0.056,0.188-0.129,0.188C531.194,407.743,531.135,407.659,531.135,407.554
		 M510.867,398.441c0-0.147,0.083-0.264,0.18-0.264c0.103,0,0.183,0.116,0.183,0.264c0,0.144-0.08,0.259-0.183,0.259
		C510.95,398.7,510.867,398.584,510.867,398.441 M485.372,361.894c0-0.431,0.24-0.784,0.544-0.784c0.299,0,0.542,0.354,0.542,0.784
		c0,0.433-0.243,0.789-0.542,0.789C485.612,362.683,485.372,362.327,485.372,361.894 M464.446,413.128
		c0-0.081,0.046-0.144,0.1-0.144c0.057,0,0.105,0.062,0.105,0.144s-0.048,0.147-0.105,0.147
		C464.492,413.276,464.446,413.209,464.446,413.128 M458.065,415.046c0-0.078,0.045-0.146,0.1-0.146
		c0.059,0,0.099,0.068,0.099,0.146c0,0.081-0.04,0.147-0.099,0.147C458.11,415.194,458.065,415.127,458.065,415.046 M449.461,409.47
		c0-0.079,0.043-0.146,0.102-0.146c0.054,0,0.1,0.067,0.1,0.146c0,0.078-0.046,0.142-0.1,0.142
		C449.504,409.612,449.461,409.548,449.461,409.47 M445.53,416.045c0.003,0.201,0.019,0.403,0.046,0.598l-0.285-0.256
		C445.407,416.301,445.49,416.185,445.53,416.045 M444.539,411.309c0-0.234,0.132-0.414,0.291-0.414c0.159,0,0.291,0.18,0.291,0.414
		c0,0.229-0.132,0.418-0.291,0.418C444.671,411.727,444.539,411.538,444.539,411.309 M428.982,277.206
		c0-0.378,0.199-0.683,0.439-0.683c0.248,0,0.447,0.305,0.447,0.683c0,0.377-0.199,0.684-0.447,0.684
		C429.181,277.889,428.982,277.583,428.982,277.206 M400.196,411.309c0-0.234,0.126-0.414,0.288-0.414
		c0.159,0,0.294,0.18,0.294,0.414c0,0.229-0.135,0.418-0.294,0.418C400.322,411.727,400.196,411.538,400.196,411.309 M383.3,205.853
		c0-0.552,0.294-0.999,0.652-0.999c0.358,0,0.649,0.447,0.649,0.999c0,0.555-0.291,1.002-0.649,1.002
		C383.594,206.855,383.3,206.408,383.3,205.853"/>
	<path fill="#47BFEF" d="M1782.003,431.619c0,0-1.301,2.222-2.939,4.886c-19.454-1.034-39.914-1.924-61.194-2.641
		c-3.866-1.118-7.687-2.224-11.393-3.27c-7.758-2.187-25.974-6.819-27.96-7.211c-1.986-0.387-3.475-0.605-4.383-0.605
		c-0.088,0-0.179,0.005-0.259,0.009c-3.207,0.183-6.636,1.751-10.278,4.013c-2.53,1.568-5.148,3.47-7.865,5.483
		c-23.943-0.424-48.635-0.643-73.87-0.643h-5.54c-9.887-4.101-20.282-8.56-30.392-12.821c-12.489-5.27-24.523-10.248-34.589-13.909
		c-5.023-1.835-9.558-3.336-13.414-4.378c-3.848-1.048-9.361-1.635-9.379-1.635c-2.262,0.014-4.767,0.771-7.43,2.094
		c-4.668,2.311-9.852,6.342-15.187,11.121c-7.474,6.688-15.232,14.853-22.215,21.822c-21.102,0.727-41.376,1.617-60.669,2.65
		c-0.365-0.144-0.73-0.285-1.096-0.432c-6.164-2.41-11.989-4.708-16.728-6.444c-2.369-0.873-4.463-1.6-6.191-2.129
		c-1.728-0.535-3.09-0.873-3.99-0.953c-0.49-0.045-1.007-0.063-1.568-0.063c-3.856,0-9.254,1.038-15.196,2.598
		c-15.045,3.954-33.545,11.24-38.925,13.4c-27.373,2.543-50.898,5.46-69.665,8.654v6.03c35.923-6.119,89.27-11.197,153.715-14.649
		c9.887,4.414,19.321,8.694,21.013,9.407h31.577c2.93-2.614,6.164-5.861,9.567-9.42c0.863-0.904,1.736-1.83,2.618-2.771
		c38.365-1.273,79.383-2.013,122.068-2.129c2.004,1.137,3.901,2.245,5.675,3.306c5.121,3.063,8.443,6.274,10.492,8.72
		c0.73,0.873,1.301,1.652,1.729,2.294h60.722c1.229-1.866,5.122-7.616,9.78-13.085c0.161-0.188,0.312-0.37,0.472-0.552
		c19.16,0.355,37.839,0.832,55.931,1.429c3.394,1.443,6.653,2.886,9.638,4.24c4.729,2.138,16.256,7.968,16.256,7.968h46.969
		l3.154-8.81c20.674,1.185,40.128,2.548,58.13,4.062v-3.781v-2.254v-2.28L1782.003,431.619z M1316.661,441.047
		c2.235-0.766,4.56-1.546,6.921-2.316c5.932-1.933,12.105-3.808,17.565-5.197c5.47-1.395,10.226-2.303,13.308-2.303
		c0.205,0,3.234,0.503,5.38,1.27c2.147,0.757,6.387,2.543,11.446,4.743C1351.924,438.367,1333.655,439.639,1316.661,441.047
		 M1432.101,444.704c-3.028,2.428-5.647,4.044-7.66,4.449c-0.41,0.08-0.891,0.12-1.443,0.12c-1.586,0-3.723-0.343-6.244-0.936
		c-5.309-1.264-12.364-3.67-19.819-6.431c13.04-0.642,26.499-1.211,40.324-1.715
		C1435.441,441.884,1433.712,443.408,1432.101,444.704 M1524.105,415.233c3.51,1.435,7.082,2.976,10.646,4.574l1.808,12.07
		c-5.086,0.053-10.146,0.115-15.16,0.187L1524.105,415.233z M1520.747,432.073c-0.677,0.009-1.345,0.022-2.021,0.031l-1.861-19.726
		c2.174,0.82,4.391,1.697,6.627,2.605L1520.747,432.073z M1535.454,420.115c2.049,0.927,4.098,1.871,6.146,2.827l-1.898,8.903
		c-0.837,0.009-1.664,0.014-2.503,0.027L1535.454,420.115z M1516.195,412.129l1.89,19.983c-4.41,0.067-8.802,0.143-13.158,0.219
		l2.699-23.209C1510.37,410.008,1513.247,411.024,1516.195,412.129 M1507.003,408.922l-2.725,23.418
		c-0.588,0.013-1.176,0.026-1.765,0.035l-3.651-25.778c2.262,0.552,4.676,1.234,7.197,2.022
		C1506.362,408.717,1506.683,408.821,1507.003,408.922 M1501.864,432.389c-3.902,0.076-7.777,0.151-11.643,0.236l3.269-27.142
		c1.479,0.245,3.048,0.562,4.704,0.957L1501.864,432.389z M1487.843,404.955c1.498,0.004,3.172,0.155,5.007,0.432l-3.278,27.252
		c-1.265,0.027-2.529,0.062-3.795,0.089l-2.823-26.25c1.826-0.979,3.474-1.531,4.872-1.522H1487.843z M1482.338,406.815
		l2.788,25.931c-3.402,0.076-6.787,0.155-10.154,0.245l3.313-23.413c0.446-0.344,0.891-0.673,1.319-0.985
		C1480.558,407.917,1481.465,407.324,1482.338,406.815 M1474.322,433.012c-0.722,0.014-1.434,0.036-2.147,0.054l-2.218-16.148
		c2.664-2.575,5.22-4.892,7.607-6.775L1474.322,433.012z M1469.014,417.838c0.125-0.124,0.249-0.245,0.374-0.365l2.146,15.61
		c-5.915,0.156-11.767,0.326-17.566,0.513C1459.028,428.144,1464.176,422.586,1469.014,417.838 M1540.353,431.837l1.836-8.614
		c5.887,2.771,11.659,5.647,17.057,8.476C1552.912,431.729,1546.615,431.78,1540.353,431.837 M1645.906,439.421
		c-6.289,4.258-12.907,7.808-19.729,8.382c-0.304,0.027-0.633,0.045-0.98,0.045c-2.672,0-6.484-0.762-11.161-2.098
		c-6.298-1.809-14.145-4.65-22.83-8.07c19.196,0.04,38.062,0.204,56.5,0.494C1647.108,438.593,1646.503,439.011,1645.906,439.421
		 M1681.197,428.554c1.087,0.196,2.236,0.414,3.403,0.655l-0.606,3.665c-0.757-0.019-1.522-0.045-2.289-0.062L1681.197,428.554z
		 M1681.056,432.803c-0.401-0.013-0.803-0.021-1.194-0.032l0.383-4.39c0.099,0.017,0.196,0.035,0.294,0.053L1681.056,432.803z
		 M1685.232,429.342c0.24,0.045,0.481,0.098,0.713,0.152l0.312,3.433c-0.535-0.008-1.069-0.026-1.613-0.035L1685.232,429.342z
		 M1686.604,429.641c0.712,0.156,1.416,0.32,2.111,0.499l-0.534,2.837c-0.429-0.01-0.848-0.022-1.274-0.031L1686.604,429.641z
		 M1689.339,430.296c0.215,0.053,0.419,0.111,0.623,0.164l0.135,2.565c-0.419-0.009-0.838-0.022-1.266-0.031L1689.339,430.296z
		 M1679.612,428.273l-0.392,4.481c-0.749-0.009-1.488-0.031-2.236-0.049l-0.784-4.979
		C1677.128,427.865,1678.303,428.051,1679.612,428.273 M1676.325,432.692c-0.624-0.018-1.256-0.026-1.889-0.045l0.33-5.131
		c0.214,0.031,0.472,0.067,0.766,0.107L1676.325,432.692z M1673.894,427.41c0.009-0.01,0.089,0.005,0.231,0.018l-0.329,5.211
		c-0.927-0.026-1.854-0.044-2.779-0.062l-0.445-4.249C1671.746,427.761,1672.86,427.427,1673.894,427.41 M1669.956,428.639
		l0.41,3.923c-0.445-0.013-0.899-0.025-1.345-0.03l0.543-3.675C1669.698,428.782,1669.822,428.71,1669.956,428.639
		 M1668.852,429.294l-0.481,3.219c-0.588-0.008-1.184-0.018-1.771-0.031l-0.151-1.442c0.017-0.014,0.035-0.027,0.062-0.044
		C1667.293,430.358,1668.085,429.784,1668.852,429.294 M1665.859,431.53l0.097,0.939c-0.382-0.004-0.765-0.018-1.14-0.021
		C1665.164,432.13,1665.503,431.824,1665.859,431.53 M1690.746,433.048l-0.134-2.41c0.651,0.184,1.274,0.366,1.871,0.558
		c1.968,0.632,3.99,1.326,6.039,2.062C1695.939,433.186,1693.348,433.115,1690.746,433.048 M1770.513,448.511
		c-0.232,0.214-1.336,0.583-1.56,0.526c-1.736-0.468-7.936-2.343-16.416-4.896c-3.429-1.028-7.241-2.178-11.276-3.38
		c11.642,0.477,22.999,0.997,34.044,1.572C1773.657,444.632,1770.904,448.16,1770.513,448.511"/>
	<path fill="#FFFFFF" d="M1072.563,385.153c0-36.366-15.867-66.434-36.505-71.414c-0.167-0.041-0.334-0.079-0.502-0.115
		c-0.559-0.124-1.121-0.231-1.686-0.318c-0.074-0.011-0.147-0.025-0.221-0.036c-0.683-0.098-1.369-0.171-2.06-0.214
		c0.027-0.002,0.053-0.001,0.08-0.003c-0.558-0.037-1.119-0.057-1.682-0.057c-23.502,0-42.558,32.31-42.558,72.157
		c0,23.724,5.029,42.588,15.452,55.741h54.107C1066.679,426.35,1072.563,408.888,1072.563,385.153"/>
	<polygon fill="#47BFEF" points="1047.293,392.712 1041.697,376.05 1037.204,393.462 1042.554,411.326 	"/>
	<polygon fill="#47BFEF" points="1035.913,393.526 1030.021,373.852 1024.616,393.968 1030.517,414.439 	"/>
	<path fill="#47BFEF" d="M1061.544,336.734c-0.472-0.882-0.958-1.746-1.459-2.593c-0.674-1.141-1.368-2.236-2.079-3.293l2.895,8.413
		L1061.544,336.734z"/>
	<polygon fill="#47BFEF" points="1023.323,393.998 1018.427,377.011 1013.246,394.076 1018.418,412.245 	"/>
	<polygon fill="#47BFEF" points="1011.939,394.046 1007.771,379.406 1002.559,396.578 1006.375,412.375 	"/>
	<polygon fill="#47BFEF" points="1012.576,396.281 1006.957,414.789 1012.059,435.905 1017.788,414.589 	"/>
	<polygon fill="#47BFEF" points="1023.987,396.303 1019.079,414.565 1025.062,435.58 1029.901,416.821 	"/>
	<polygon fill="#47BFEF" points="1072.155,375.891 1066.599,359.75 1063.416,374.696 1069.138,391.322 	"/>
	<polygon fill="#47BFEF" points="1003.475,359.756 1007.804,374.963 1012.951,358.013 1008.658,343.121 	"/>
	<polygon fill="#47BFEF" points="1048.017,394.868 1043.242,413.623 1049.458,434.383 1054.05,412.832 	"/>
	<polygon fill="#47BFEF" points="1068.647,393.83 1062.897,377.127 1059.276,394.125 1065.162,411.65 	"/>
	<path fill="#47BFEF" d="M1067.332,350.483c-1.394-4.307-3.043-8.35-4.935-12.102l-0.764,3.005l4.717,13.705L1067.332,350.483z"/>
	<path fill="#47BFEF" d="M1071.706,370.65c-0.56-4.641-1.389-9.176-2.488-13.576c-0.357-1.431-0.743-2.835-1.15-4.214l-0.95,4.46
		L1071.706,370.65z"/>
	<polygon fill="#47BFEF" points="1065.832,357.521 1061.057,343.647 1057.516,357.555 1062.648,372.467 	"/>
	<polygon fill="#47BFEF" points="1057.995,394.316 1052.398,377.655 1048.597,392.588 1054.573,410.38 	"/>
	<polygon fill="#47BFEF" points="1062.131,374.898 1056.94,359.817 1052.979,375.375 1058.516,391.863 	"/>
	<polygon fill="#47BFEF" points="1036.598,395.813 1031.189,416.774 1036.487,435.153 1041.952,413.691 	"/>
	<polygon fill="#47BFEF" points="1051.676,375.5 1046.112,358.937 1042.282,373.784 1047.874,390.434 	"/>
	<polygon fill="#47BFEF" points="1056.209,357.694 1050.622,341.46 1046.697,356.67 1052.256,373.22 	"/>
	<polygon fill="#47BFEF" points="1040,336.728 1045.976,354.522 1049.893,339.342 1043.944,322.056 	"/>
	<polygon fill="#47BFEF" points="1035.482,353.539 1041.561,371.637 1045.391,356.791 1039.402,338.956 	"/>
	<polygon fill="#47BFEF" points="1007.135,377.17 1002.797,361.934 997.948,377.495 1001.975,394.166 	"/>
	<polygon fill="#47BFEF" points="1009.333,340.952 1013.619,355.816 1019.157,337.572 1014.858,323.217 	"/>
	<polygon fill="#47BFEF" points="1002.165,359.714 998.283,346.08 993.82,360.407 997.371,375.105 	"/>
	<polygon fill="#47BFEF" points="1001.272,396.479 997.237,379.778 991.891,396.943 995.81,414.475 	"/>
	<polygon fill="#47BFEF" points="987.942,379.276 991.338,394.471 996.661,377.387 993.11,362.688 	"/>
	<polygon fill="#47BFEF" points="1040.976,373.905 1034.883,355.764 1030.642,371.545 1036.52,391.173 	"/>
	<polygon fill="#47BFEF" points="1017.787,374.79 1013.59,360.234 1008.44,377.2 1012.609,391.841 	"/>
	<polygon fill="#47BFEF" points="1020.47,337.578 1024.747,351.862 1028.937,338.06 1024.414,324.588 	"/>
	<polygon fill="#47BFEF" points="1014.258,358.038 1018.453,372.59 1024.086,354.036 1019.81,339.753 	"/>
	<polygon fill="#47BFEF" points="1030.267,338.01 1034.768,351.413 1038.688,336.83 1034.453,324.22 	"/>
	<polygon fill="#47BFEF" points="1025.4,354.041 1029.965,369.286 1034.17,353.641 1029.628,340.115 	"/>
	<polygon fill="#47BFEF" points="1029.344,371.592 1024.74,356.215 1019.093,374.812 1023.95,391.661 	"/>
	<polygon fill="#47BFEF" points="1001.855,398.892 996.367,416.97 1000.02,433.31 1005.671,414.691 	"/>
	<path fill="#47BFEF" d="M994.134,424.325c1.464,3.824,3.143,7.414,5.029,10.739l-3.515-15.725L994.134,424.325z"/>
	<path fill="#47BFEF" d="M1072.475,380.541l-2.553,13.059l1.857,5.395c0.52-4.53,0.784-9.156,0.784-13.853
		C1072.563,383.599,1072.532,382.067,1072.475,380.541"/>
	<path fill="#47BFEF" d="M1065.94,413.966l1.668,4.965c0.583-1.859,1.121-3.768,1.61-5.722c0.922-3.692,1.652-7.479,2.194-11.345
		l-1.98-5.756L1065.94,413.966z"/>
	<polygon fill="#47BFEF" points="1058.754,396.579 1055.332,412.643 1061.422,430.777 1064.667,414.184 	"/>
	<path fill="#47BFEF" d="M1062.455,431.785c1.695-3.376,3.196-6.986,4.491-10.812l-1.502-4.474L1062.455,431.785z"/>
	<path fill="#47BFEF" d="M987.344,382.19c-0.023,0.981-0.037,1.964-0.037,2.952c0,6.134,0.447,12.152,1.334,17.988l1.97-6.326
		L987.344,382.19z"/>
	<path fill="#47BFEF" d="M1023.723,322.532l-2.675-7.965c-1.37,0.492-2.724,1.099-4.061,1.82l-1.46,4.687l4.29,14.323
		L1023.723,322.532z"/>
	<path fill="#47BFEF" d="M1036.304,313.792c-1.401-0.355-2.817-0.592-4.245-0.709l2.343,6.975L1036.304,313.792z"/>
	<path fill="#47BFEF" d="M1026.549,313.222c-1.445,0.19-2.876,0.504-4.291,0.94l2.103,6.265L1026.549,313.222z"/>
	<path fill="#47BFEF" d="M1029.576,335.955l4.186-13.79l-3.074-9.152c-0.25-0.008-0.501-0.016-0.754-0.016
		c-0.678,0-1.354,0.029-2.027,0.082l-2.855,9.404L1029.576,335.955z"/>
	<path fill="#47BFEF" d="M1053.571,325.088c-2.213-2.499-4.562-4.647-7.036-6.418c-0.471-0.338-0.947-0.655-1.423-0.962
		l-0.575,2.138l5.936,17.246L1053.571,325.088z"/>
	<path fill="#47BFEF" d="M991.163,399.276l-2.064,6.627c0.439,2.471,0.955,4.91,1.553,7.307c0.795,3.178,1.716,6.237,2.759,9.164
		l1.679-5.529L991.163,399.276z"/>
	<path fill="#47BFEF" d="M1039.287,334.603l3.936-14.642l-1.423-4.133c-1.41-0.691-2.838-1.259-4.284-1.696l-2.423,7.981
		L1039.287,334.603z"/>
	<path fill="#47BFEF" d="M1044.011,317.026c-0.185-0.11-0.37-0.221-0.557-0.327l0.362,1.053L1044.011,317.026z"/>
	<path fill="#47BFEF" d="M991.226,354.891c-0.197,0.722-0.39,1.446-0.574,2.183c-1.516,6.071-2.521,12.403-3.007,18.908
		l4.887-15.685L991.226,354.891z"/>
	<path fill="#47BFEF" d="M1056.785,355.43l3.541-13.908l-4.889-14.203c-0.292-0.37-0.587-0.734-0.885-1.093l-3.35,12.985
		L1056.785,355.43z"/>
	<path fill="#47BFEF" d="M997.652,343.861l-1.052-3.693c-1.81,3.834-3.379,7.952-4.691,12.329l1.333,5.519L997.652,343.861z"/>
	<path fill="#47BFEF" d="M1015.375,317.314c-0.274,0.169-0.546,0.345-0.818,0.522l0.321,1.071L1015.375,317.314z"/>
	<path fill="#47BFEF" d="M1014.209,321.054l-0.741-2.477c-0.044,0.032-0.089,0.061-0.133,0.093c-2.907,2.083-5.643,4.68-8.187,7.765
		l3.549,12.312L1014.209,321.054z"/>
	<path fill="#47BFEF" d="M1001.568,331.292c-0.608,0.92-1.205,1.865-1.784,2.85c-0.828,1.398-1.614,2.85-2.364,4.345l0.91,3.2
		L1001.568,331.292z"/>
	<path fill="#47BFEF" d="M1002.843,357.539l5.179-16.622l-3.83-13.286c-0.09,0.115-0.18,0.233-0.27,0.349l-4.961,15.925
		L1002.843,357.539z"/>
	<polygon fill="#47BFEF" points="1037.163,437.498 1038.142,440.894 1048.072,440.894 1048.914,436.942 1042.64,415.988 	"/>
	<polygon fill="#47BFEF" points="1012.667,438.421 1013.264,440.894 1023.69,440.894 1024.444,437.971 1018.449,416.91 	"/>
	<path fill="#47BFEF" d="M1000.577,435.806l0.567,2.537c0.567,0.881,1.147,1.729,1.737,2.551h7.837l0.676-2.516l-5.139-21.275
		L1000.577,435.806z"/>
	<path fill="#47BFEF" d="M1050.185,436.805l1.224,4.089h5.579c1.072-1.491,2.107-3.075,3.098-4.753
		c0.147-0.249,0.29-0.504,0.435-0.755l0.406-2.075l-6.118-18.217L1050.185,436.805z"/>
	<polygon fill="#47BFEF" points="1025.833,437.532 1035.873,437.532 1030.575,419.155 	"/>
	<path fill="#47BFEF" d="M825.545,451.181h9.192h30.527h1.332h4.782h4.628h33.697h10.778h19.295h0.682h3.2h79.516l-78.873-16.847
		l-0.123,0.003l-0.315-0.28c0.271-26.997,0.438-63.474,0.438-103.623c0-56.663-0.153-95.012-0.644-120.705
		c-0.052,0.231-0.107,0.334-0.161,0.334c-0.229,0-0.464-1.832-0.697-3.662c-0.233-1.836-0.464-3.665-0.69-3.665
		c-0.06,0-0.119,0.127-0.178,0.42c-0.016,1.128-0.042,2.307-0.069,3.51h-10.231c-0.001-0.02-0.002-0.039-0.004-0.058
		c-2.15-2.755-4.323-5.397-6.532-7.832c-0.192,2.578-0.375,5.405-0.555,8.446l-0.042-0.457l-0.137-0.039
		c-0.894-0.282-1.642-0.519-2.247-0.711L921.937,206c-1.814,17.175-3.137,70.929-3.137,134.625c0,34.059,0.378,65.266,1.008,89.567
		l-8.83,0.015c0.909-18.467,1.422-39.241,1.422-61.215c0-57.968-3.555-111.014-8.603-133.496l0.015-1.045l-0.235,0.084l-7.125,2.549
		l-1.637-7.021l-0.239,0.179l-18.57,13.861v186.162l-4.221,0.007c0.424-26.902,0.684-63.025,0.684-102.764
		c0-56.663-0.242-95.011-1.023-120.704c-0.086,0.23-0.172,0.334-0.258,0.334c-0.367,0-0.74-1.832-1.11-3.666
		c-0.372-1.83-0.74-3.664-1.098-3.664c-0.095,0-0.19,0.13-0.283,0.421c-0.027,1.129-0.067,2.308-0.113,3.511h-16.287
		c-0.003-0.019-0.004-0.037-0.005-0.059c-3.423-2.754-6.886-5.398-10.4-7.832c-0.305,2.58-0.599,5.409-0.883,8.447l-0.067-0.457
		l-0.221-0.038c-1.421-0.282-2.613-0.521-3.575-0.712l-0.286-0.016c-2.885,17.174-4.993,70.93-4.993,134.625
		c0,35.509,0.657,67.921,1.736,92.637l-53.166,0.014 M853.93,429.646c0.048-0.796,0.096-1.602,0.141-2.415h10.757
		c0.051,0.808,0.104,1.625,0.155,2.415H853.93z M861.74,332.802c0.001,0.804,0.001,1.613,0.005,2.413h-5.207
		c0.002-0.8,0.002-1.609,0.003-2.413H861.74z M856.546,329.951c0.001-0.513,0.003-1.021,0.003-1.535h5.18
		c0,0.516,0.003,1.021,0.004,1.535H856.546z M861.739,325.563h-5.192c0-0.804,0-1.61-0.001-2.412h5.204
		C861.744,323.955,861.741,324.759,861.739,325.563 M856.538,320.299c-0.003-0.804-0.005-1.614-0.009-2.414h5.286
		c-0.012,0.803-0.023,1.61-0.034,2.414H856.538z M861.763,338.067c0.005,0.808,0.012,1.609,0.017,2.412h-5.268
		c0.004-0.801,0.008-1.606,0.011-2.412H861.763z M861.803,343.332c0.008,0.809,0.018,1.606,0.027,2.414h-5.354
		c0.007-0.808,0.014-1.604,0.019-2.414H861.803z M856.515,315.035c-0.003-0.807-0.008-1.611-0.014-2.413h5.416
		c-0.018,0.804-0.035,1.606-0.052,2.413H856.515z M856.482,309.769c-0.007-0.954-0.016-1.903-0.024-2.852h5.613
		c-0.03,0.95-0.059,1.897-0.084,2.852H856.482z M861.864,348.596c0.013,0.948,0.023,1.908,0.037,2.853h-5.477
		c0.011-0.949,0.019-1.9,0.027-2.853H861.864z M861.95,354.3c0.013,0.804,0.026,1.612,0.04,2.412h-5.628
		c0.011-0.8,0.02-1.608,0.03-2.412H861.95z M862.042,359.564c0.017,0.812,0.035,1.609,0.053,2.414h-5.809
		c0.014-0.805,0.026-1.605,0.037-2.414H862.042z M862.155,364.83c0.02,0.808,0.039,1.61,0.059,2.413h-6.015
		c0.015-0.806,0.032-1.602,0.045-2.413H862.155z M862.159,304.065h-5.727c-0.008-0.807-0.019-1.608-0.028-2.414h5.843
		C862.217,302.457,862.188,303.258,862.159,304.065 M856.37,298.8c-0.009-0.807-0.02-1.61-0.032-2.412h6.117
		c-0.034,0.802-0.067,1.605-0.098,2.412H856.37z M856.297,293.537c-0.013-0.809-0.024-1.613-0.039-2.412h6.436
		c-0.039,0.801-0.075,1.606-0.111,2.412H856.297z M856.21,288.271c-0.016-0.904-0.032-1.811-0.05-2.709h6.818
		c-0.049,0.9-0.094,1.805-0.14,2.709H856.21z M862.288,370.093c0.019,0.692,0.036,1.393,0.054,2.08h-6.233
		c0.014-0.688,0.025-1.388,0.039-2.08H862.288z M862.425,375.024c0.023,0.81,0.048,1.611,0.073,2.414h-6.506
		c0.019-0.801,0.036-1.608,0.054-2.414H862.425z M862.585,380.289c0.027,0.814,0.058,1.606,0.085,2.414h-6.808
		c0.021-0.806,0.042-1.604,0.063-2.414H862.585z M862.769,385.554c0.029,0.807,0.057,1.612,0.089,2.412h-7.137
		c0.022-0.803,0.046-1.6,0.068-2.412H862.769z M862.968,390.819c0.037,0.95,0.073,1.911,0.111,2.853h-7.532
		c0.03-0.942,0.06-1.899,0.088-2.853H862.968z M856.105,282.71c-0.016-0.808-0.034-1.611-0.051-2.412h7.22
		c-0.047,0.801-0.092,1.606-0.138,2.412H856.105z M855.991,277.446c-0.019-0.81-0.04-1.611-0.059-2.413h7.661
		c-0.05,0.802-0.1,1.604-0.149,2.413H855.991z M855.862,272.181c-0.021-0.809-0.043-1.611-0.066-2.413h8.139
		c-0.056,0.802-0.109,1.604-0.16,2.413H855.862z M855.716,266.917c-0.028-0.955-0.055-1.908-0.084-2.854h8.692
		c-0.067,0.948-0.131,1.901-0.199,2.854H855.716z M855.542,261.212c-0.025-0.809-0.053-1.609-0.08-2.412h9.239
		c-0.059,0.799-0.117,1.605-0.174,2.412H855.542z M863.201,396.522c0.035,0.806,0.07,1.615,0.105,2.413h-7.936
		c0.029-0.793,0.054-1.609,0.081-2.413H863.201z M863.436,401.787c0.037,0.809,0.074,1.612,0.113,2.414h-8.375
		c0.03-0.797,0.061-1.607,0.09-2.414H863.436z M863.686,407.051c0.042,0.814,0.084,1.61,0.124,2.413h-8.853
		c0.034-0.801,0.07-1.603,0.104-2.413H863.686z M863.956,412.315c0.027,0.522,0.057,1.021,0.084,1.537h-9.276
		c0.024-0.515,0.049-1.017,0.071-1.537H863.956z M864.197,416.703c0.046,0.81,0.092,1.617,0.137,2.413h-9.823
		c0.041-0.801,0.08-1.601,0.12-2.413H864.197z M864.502,421.968c0.05,0.807,0.097,1.619,0.147,2.412h-10.414
		c0.043-0.796,0.086-1.603,0.129-2.412H864.502z M864.911,255.949h-9.548c-0.028-0.809-0.057-1.613-0.086-2.413h9.816
		C865.031,254.337,864.971,255.14,864.911,255.949 M865.309,250.683h-10.142c-0.031-0.807-0.062-1.613-0.095-2.412h10.422
		C865.432,249.073,865.371,249.873,865.309,250.683 M865.714,245.419h-10.761c-0.023-0.516-0.046-1.025-0.067-1.536h10.947
		C865.793,244.392,865.754,244.906,865.714,245.419 M866.057,241.032h-11.299c-0.037-0.812-0.075-1.612-0.114-2.413h11.601
		C866.183,239.416,866.119,240.223,866.057,241.032 M866.468,235.767h-11.965c-0.041-0.809-0.082-1.616-0.124-2.413h12.276
		C866.593,234.155,866.531,234.955,866.468,235.767 M866.875,230.501h-12.648c-0.046-0.813-0.093-1.613-0.14-2.412h12.973
		C867,228.884,866.938,229.692,866.875,230.501 M867.274,225.238h-13.355c-0.058-0.962-0.118-1.913-0.178-2.852h13.742
		C867.415,223.325,867.345,224.276,867.274,225.238 M867.684,219.535h-14.13c-0.055-0.812-0.11-1.62-0.167-2.414h14.463
		C867.797,217.915,867.741,218.722,867.684,219.535 M868.035,214.269h-14.854c-0.062-0.814-0.123-1.622-0.186-2.413h15.188
		C868.136,212.651,868.087,213.454,868.035,214.269 M868.342,209.004h-15.577c-0.069-0.819-0.138-1.62-0.208-2.413h15.905
		C868.424,207.384,868.386,208.185,868.342,209.004"/>
	<polygon fill="#FFFFFF" points="932.746,430.17 932.746,430.16 939.501,430.16 	"/>
	<path fill="#FFFFFF" d="M937.562,335.728c0.002,0.804,0.002,1.612,0.003,2.413h-3.271c0.001-0.799,0.001-1.61,0.002-2.413H937.562z
		"/>
	<path fill="#FFFFFF" d="M934.3,332.876c0-0.515,0.001-1.021,0.001-1.535h3.255c0,0.514,0.001,1.021,0.001,1.535H934.3z"/>
	<path fill="#FFFFFF" d="M937.561,328.489h-3.26c0-0.806-0.001-1.61-0.001-2.413h3.269
		C937.564,326.879,937.563,327.683,937.561,328.489"/>
	<path fill="#FFFFFF" d="M934.294,323.224c0-0.806-0.002-1.611-0.005-2.413h3.319c-0.006,0.804-0.013,1.607-0.018,2.413H934.294z"/>
	<path fill="#FFFFFF" d="M937.575,340.994c0.004,0.807,0.008,1.608,0.012,2.412h-3.31c0.004-0.802,0.007-1.608,0.008-2.412H937.575z
		"/>
	<path fill="#FFFFFF" d="M937.602,346.257c0.005,0.809,0.012,1.607,0.017,2.412h-3.363c0.004-0.805,0.011-1.604,0.013-2.412H937.602
		z"/>
	<path fill="#FFFFFF" d="M934.28,317.958c-0.003-0.804-0.004-1.609-0.008-2.412h3.401c-0.012,0.804-0.023,1.608-0.032,2.412H934.28z
		"/>
	<path fill="#FFFFFF" d="M934.26,312.695c-0.006-0.953-0.01-1.903-0.016-2.851h3.527c-0.02,0.948-0.038,1.897-0.055,2.851H934.26z"
		/>
	<path fill="#FFFFFF" d="M937.641,351.523c0.008,0.949,0.015,1.908,0.022,2.852h-3.44c0.008-0.947,0.013-1.899,0.019-2.852H937.641z
		"/>
	<path fill="#FFFFFF" d="M937.694,357.224c0.007,0.807,0.015,1.611,0.025,2.414h-3.535c0.007-0.799,0.014-1.609,0.018-2.414H937.694
		z"/>
	<path fill="#FFFFFF" d="M937.751,362.491c0.011,0.81,0.023,1.605,0.033,2.413h-3.647c0.009-0.803,0.016-1.604,0.023-2.413H937.751z
		"/>
	<path fill="#FFFFFF" d="M937.822,367.754c0.014,0.809,0.025,1.61,0.038,2.413h-3.778c0.01-0.805,0.019-1.602,0.028-2.413H937.822z"
		/>
	<path fill="#FFFFFF" d="M937.825,306.992h-3.597c-0.006-0.81-0.012-1.609-0.018-2.413h3.67
		C937.863,305.382,937.843,306.185,937.825,306.992"/>
	<path fill="#FFFFFF" d="M934.189,301.726c-0.007-0.81-0.014-1.611-0.02-2.412h3.842c-0.021,0.801-0.043,1.607-0.063,2.412H934.189z
		"/>
	<path fill="#FFFFFF" d="M934.144,296.462c-0.007-0.806-0.016-1.612-0.024-2.414h4.043c-0.026,0.802-0.048,1.608-0.072,2.414
		H934.144z"/>
	<path fill="#FFFFFF" d="M934.089,291.197c-0.011-0.904-0.021-1.812-0.03-2.71h4.28c-0.029,0.899-0.058,1.806-0.088,2.71H934.089z"
		/>
	<path fill="#FFFFFF" d="M937.907,373.019c0.011,0.692,0.02,1.393,0.034,2.081h-3.916c0.008-0.686,0.016-1.389,0.025-2.081H937.907z
		"/>
	<path fill="#FFFFFF" d="M937.992,377.951c0.014,0.811,0.031,1.612,0.046,2.414h-4.086c0.012-0.802,0.023-1.608,0.033-2.414H937.992
		z"/>
	<path fill="#FFFFFF" d="M938.092,383.216c0.019,0.812,0.037,1.604,0.054,2.412h-4.276c0.014-0.804,0.028-1.604,0.039-2.412H938.092
		z"/>
	<path fill="#FFFFFF" d="M938.209,388.481c0.018,0.806,0.036,1.61,0.054,2.413h-4.483c0.016-0.807,0.031-1.602,0.044-2.413H938.209z
		"/>
	<path fill="#FFFFFF" d="M938.333,393.746c0.023,0.95,0.048,1.913,0.069,2.852h-4.73c0.018-0.943,0.038-1.898,0.055-2.852H938.333z"
		/>
	<path fill="#FFFFFF" d="M934.022,285.636c-0.01-0.808-0.022-1.613-0.032-2.413h4.535c-0.029,0.802-0.058,1.605-0.087,2.413H934.022
		z"/>
	<path fill="#FFFFFF" d="M933.951,280.371c-0.012-0.812-0.024-1.609-0.037-2.412h4.81c-0.03,0.803-0.061,1.605-0.091,2.412H933.951z
		"/>
	<path fill="#FFFFFF" d="M933.868,275.106c-0.013-0.808-0.024-1.612-0.04-2.413h5.112c-0.034,0.805-0.068,1.604-0.101,2.413H933.868
		z"/>
	<path fill="#FFFFFF" d="M933.777,269.842c-0.017-0.955-0.035-1.908-0.053-2.854h5.459c-0.04,0.945-0.081,1.898-0.123,2.854H933.777
		z"/>
	<path fill="#FFFFFF" d="M933.669,264.138c-0.017-0.811-0.033-1.612-0.051-2.413h5.804c-0.038,0.801-0.073,1.606-0.11,2.413H933.669
		z"/>
	<path fill="#FFFFFF" d="M938.479,399.449c0.022,0.807,0.043,1.614,0.066,2.414h-4.984c0.018-0.795,0.033-1.611,0.05-2.414H938.479z
		"/>
	<path fill="#FFFFFF" d="M938.627,404.714c0.022,0.809,0.048,1.611,0.071,2.412h-5.26c0.019-0.797,0.039-1.607,0.056-2.412H938.627z
		"/>
	<path fill="#FFFFFF" d="M938.785,409.978c0.025,0.813,0.051,1.606,0.077,2.414h-5.56c0.022-0.803,0.044-1.605,0.064-2.414H938.785z
		"/>
	<path fill="#FFFFFF" d="M938.953,415.244c0.019,0.521,0.036,1.018,0.053,1.535h-5.826c0.016-0.515,0.031-1.018,0.044-1.535H938.953
		z"/>
	<path fill="#FFFFFF" d="M939.105,419.63c0.028,0.809,0.057,1.615,0.086,2.413h-6.17c0.025-0.802,0.051-1.602,0.074-2.413H939.105z"
		/>
	<path fill="#FFFFFF" d="M939.297,424.896c0.031,0.805,0.062,1.617,0.091,2.412h-6.54c0.027-0.799,0.054-1.604,0.083-2.412H939.297z
		"/>
	<path fill="#FFFFFF" d="M939.554,258.874h-5.997c-0.018-0.811-0.035-1.612-0.054-2.413h6.165
		C939.63,257.263,939.591,258.063,939.554,258.874"/>
	<path fill="#FFFFFF" d="M939.803,253.609h-6.369c-0.02-0.807-0.04-1.616-0.06-2.414h6.545
		C939.882,251.997,939.843,252.798,939.803,253.609"/>
	<path fill="#FFFFFF" d="M940.059,248.344H933.3c-0.014-0.518-0.029-1.024-0.042-1.536h6.874
		C940.108,247.318,940.082,247.832,940.059,248.344"/>
	<path fill="#FFFFFF" d="M940.273,243.957h-7.097c-0.022-0.812-0.048-1.611-0.071-2.412h7.285
		C940.353,242.341,940.312,243.15,940.273,243.957"/>
	<path fill="#FFFFFF" d="M940.531,238.693h-7.516c-0.024-0.812-0.05-1.617-0.077-2.414h7.711
		C940.611,237.08,940.57,237.878,940.531,238.693"/>
	<path fill="#FFFFFF" d="M940.788,233.427h-7.944c-0.031-0.814-0.06-1.614-0.089-2.413h8.149
		C940.864,231.808,940.827,232.621,940.788,233.427"/>
	<path fill="#FFFFFF" d="M941.037,228.164h-8.388c-0.036-0.965-0.074-1.913-0.112-2.854h8.631
		C941.125,226.252,941.081,227.199,941.037,228.164"/>
	<path fill="#FFFFFF" d="M941.295,222.459h-8.875c-0.033-0.812-0.068-1.62-0.104-2.413h9.084
		C941.366,220.839,941.331,221.647,941.295,222.459"/>
	<path fill="#FFFFFF" d="M941.516,217.195h-9.33c-0.038-0.815-0.077-1.623-0.115-2.413h9.538
		C941.581,215.576,941.548,216.377,941.516,217.195"/>
	<path fill="#FFFFFF" d="M941.708,211.929h-9.784c-0.043-0.818-0.085-1.619-0.13-2.412h9.989
		C941.76,210.308,941.736,211.109,941.708,211.929"/>
	<g>
		<path fill="#47BFEF" d="M2285.122,172.182c-2.229,0-4.339,0.744-6.059,2.115c-1.717-1.371-3.829-2.115-6.055-2.115
			c-2.811,0-5.484,1.217-7.335,3.334c-0.456,0.525-0.406,1.32,0.118,1.781c0.519,0.459,1.311,0.406,1.77-0.115
			c2.664-3.047,7.766-3.2,10.61-0.309c0.471,0.483,1.316,0.483,1.789,0c1.374-1.398,3.208-2.17,5.161-2.17
			c2.968,0,5.604,1.786,6.719,4.547c0.195,0.49,0.667,0.789,1.163,0.789c0.155,0,0.314-0.029,0.47-0.092
			c0.643-0.261,0.955-0.997,0.695-1.643C2292.67,174.586,2289.116,172.182,2285.122,172.182"/>
		<path fill="none" stroke="#FFFFFF" stroke-miterlimit="10" d="M2285.122,172.182c-2.229,0-4.339,0.744-6.059,2.115
			c-1.717-1.371-3.829-2.115-6.055-2.115c-2.811,0-5.484,1.217-7.335,3.334c-0.456,0.525-0.406,1.32,0.118,1.781
			c0.519,0.459,1.311,0.406,1.77-0.115c2.664-3.047,7.766-3.2,10.61-0.309c0.471,0.483,1.316,0.483,1.789,0
			c1.374-1.398,3.208-2.17,5.161-2.17c2.968,0,5.604,1.786,6.719,4.547c0.195,0.49,0.667,0.789,1.163,0.789
			c0.155,0,0.314-0.029,0.47-0.092c0.643-0.261,0.955-0.997,0.695-1.643C2292.67,174.586,2289.116,172.182,2285.122,172.182"/>
		<path fill="#47BFEF" d="M2270.089,158.942c0.59,0.38,1.363,0.207,1.736-0.379c0.375-0.586,0.206-1.366-0.378-1.743
			c-3.812-2.462-8.18-1.931-11.194,0.477c-1.717-1.372-3.828-2.116-6.056-2.116c-2.017,0-4.153,0.721-5.861,1.975
			c-0.559,0.41-0.682,1.199-0.271,1.761c0.407,0.562,1.192,0.687,1.754,0.272c2.968-2.176,7.115-1.784,9.543,0.686
			c0.235,0.242,0.556,0.377,0.892,0.377s0.66-0.135,0.896-0.377c1.373-1.4,3.208-2.17,5.162-2.17
			C2267.493,157.704,2268.869,158.155,2270.089,158.942"/>
		<path fill="none" stroke="#FFFFFF" stroke-miterlimit="10" d="M2270.089,158.942c0.59,0.38,1.363,0.207,1.736-0.379
			c0.375-0.586,0.206-1.366-0.378-1.743c-3.812-2.462-8.18-1.931-11.194,0.477c-1.717-1.372-3.828-2.116-6.056-2.116
			c-2.017,0-4.153,0.721-5.861,1.975c-0.559,0.41-0.682,1.199-0.271,1.761c0.407,0.562,1.192,0.687,1.754,0.272
			c2.968-2.176,7.115-1.784,9.543,0.686c0.235,0.242,0.556,0.377,0.892,0.377s0.66-0.135,0.896-0.377
			c1.373-1.4,3.208-2.17,5.162-2.17C2267.493,157.704,2268.869,158.155,2270.089,158.942"/>
		<path fill="#47BFEF" d="M2249.077,142.54c0.329,0,0.657-0.127,0.903-0.383c0.483-0.5,0.468-1.299-0.03-1.785
			c-1.886-1.832-4.494-2.969-6.805-2.969c-2.225,0-4.336,0.743-6.054,2.117c-2.863-2.283-6.952-2.805-10.452-1.037
			c-0.621,0.313-0.869,1.072-0.558,1.692c0.312,0.624,1.062,0.87,1.688,0.56c2.911-1.473,6.293-0.808,8.429,1.364
			c0.236,0.241,0.558,0.377,0.894,0.377c0.339,0,0.659-0.136,0.896-0.377c1.376-1.401,3.208-2.175,5.158-2.175
			c1.66,0,3.646,0.887,5.059,2.261C2248.449,142.422,2248.765,142.54,2249.077,142.54"/>
		<path fill="none" stroke="#FFFFFF" stroke-miterlimit="10" d="M2249.077,142.54c0.329,0,0.657-0.127,0.903-0.383
			c0.483-0.5,0.468-1.299-0.03-1.785c-1.886-1.832-4.494-2.969-6.805-2.969c-2.225,0-4.336,0.743-6.054,2.117
			c-2.863-2.283-6.952-2.805-10.452-1.037c-0.621,0.313-0.869,1.072-0.558,1.692c0.312,0.624,1.062,0.87,1.688,0.56
			c2.911-1.473,6.293-0.808,8.429,1.364c0.236,0.241,0.558,0.377,0.894,0.377c0.339,0,0.659-0.136,0.896-0.377
			c1.376-1.401,3.208-2.175,5.158-2.175c1.66,0,3.646,0.887,5.059,2.261C2248.449,142.422,2248.765,142.54,2249.077,142.54"/>
		<path fill="#47BFEF" d="M2300.197,148.338c-3.751-2.318-8.021-1.746-10.97,0.613c-2.436-1.945-5.684-2.662-8.871-1.683
			c-0.662,0.205-1.035,0.912-0.831,1.578c0.201,0.665,0.901,1.032,1.568,0.837c2.711-0.843,5.386-0.042,7.241,1.844
			c0.234,0.242,0.557,0.377,0.893,0.377c0.338,0,0.661-0.135,0.895-0.377c1.371-1.398,3.204-2.169,5.159-2.169
			c1.128,0,2.441,0.411,3.603,1.127c0.588,0.368,1.363,0.177,1.726-0.413C2300.976,149.48,2300.788,148.704,2300.197,148.338"/>
		<path fill="none" stroke="#FFFFFF" stroke-miterlimit="10" d="M2300.197,148.338c-3.751-2.318-8.021-1.746-10.97,0.613
			c-2.436-1.945-5.684-2.662-8.871-1.683c-0.662,0.205-1.035,0.912-0.831,1.578c0.201,0.665,0.901,1.032,1.568,0.837
			c2.711-0.843,5.386-0.042,7.241,1.844c0.234,0.242,0.557,0.377,0.893,0.377c0.338,0,0.661-0.135,0.895-0.377
			c1.371-1.398,3.204-2.169,5.159-2.169c1.128,0,2.441,0.411,3.603,1.127c0.588,0.368,1.363,0.177,1.726-0.413
			C2300.976,149.48,2300.788,148.704,2300.197,148.338"/>
	</g>
	<g>
		<path fill="#47BFEF" d="M1088.85,260.27c2.228,0,4.338,0.744,6.058,2.116c1.717-1.372,3.829-2.116,6.055-2.116
			c2.811,0,5.484,1.217,7.336,3.335c0.455,0.524,0.406,1.32-0.119,1.781c-0.518,0.458-1.311,0.404-1.77-0.116
			c-2.664-3.047-7.766-3.2-10.609-0.309c-0.471,0.483-1.317,0.483-1.789,0c-1.375-1.398-3.208-2.171-5.161-2.171
			c-2.968,0-5.605,1.787-6.719,4.548c-0.196,0.49-0.667,0.788-1.163,0.788c-0.156,0-0.315-0.028-0.471-0.091
			c-0.642-0.261-0.954-0.997-0.694-1.643C1081.301,262.674,1084.854,260.27,1088.85,260.27"/>
		<path fill="none" stroke="#FFFFFF" stroke-miterlimit="10" d="M1088.85,260.27c2.228,0,4.338,0.744,6.058,2.116
			c1.717-1.372,3.829-2.116,6.055-2.116c2.811,0,5.484,1.217,7.336,3.335c0.455,0.524,0.406,1.32-0.119,1.781
			c-0.518,0.458-1.311,0.404-1.77-0.116c-2.664-3.047-7.766-3.2-10.609-0.309c-0.471,0.483-1.317,0.483-1.789,0
			c-1.375-1.398-3.208-2.171-5.161-2.171c-2.968,0-5.605,1.787-6.719,4.548c-0.196,0.49-0.667,0.788-1.163,0.788
			c-0.156,0-0.315-0.028-0.471-0.091c-0.642-0.261-0.954-0.997-0.694-1.643C1081.301,262.674,1084.854,260.27,1088.85,260.27"/>
		<path fill="#47BFEF" d="M1103.883,247.031c-0.591,0.379-1.364,0.207-1.737-0.379c-0.375-0.587-0.206-1.367,0.378-1.744
			c3.812-2.461,8.181-1.93,11.194,0.477c1.717-1.372,3.828-2.115,6.056-2.115c2.017,0,4.153,0.72,5.861,1.974
			c0.56,0.411,0.682,1.199,0.271,1.761c-0.406,0.562-1.191,0.687-1.752,0.273c-2.969-2.176-7.115-1.785-9.543,0.685
			c-0.236,0.242-0.557,0.377-0.893,0.377s-0.66-0.135-0.896-0.377c-1.373-1.399-3.209-2.17-5.162-2.17
			C1106.478,245.792,1105.102,246.243,1103.883,247.031"/>
		<path fill="none" stroke="#FFFFFF" stroke-miterlimit="10" d="M1103.883,247.031c-0.591,0.379-1.364,0.207-1.737-0.379
			c-0.375-0.587-0.206-1.367,0.378-1.744c3.812-2.461,8.181-1.93,11.194,0.477c1.717-1.372,3.828-2.115,6.056-2.115
			c2.017,0,4.153,0.72,5.861,1.974c0.56,0.411,0.682,1.199,0.271,1.761c-0.406,0.562-1.191,0.687-1.752,0.273
			c-2.969-2.176-7.115-1.785-9.543,0.685c-0.236,0.242-0.557,0.377-0.893,0.377s-0.66-0.135-0.896-0.377
			c-1.373-1.399-3.209-2.17-5.162-2.17C1106.478,245.792,1105.102,246.243,1103.883,247.031"/>
		<path fill="#47BFEF" d="M1124.894,230.628c-0.329,0-0.657-0.128-0.903-0.385c-0.483-0.5-0.468-1.297,0.03-1.783
			c1.886-1.832,4.494-2.971,6.805-2.971c2.225,0,4.338,0.744,6.055,2.119c2.863-2.283,6.953-2.806,10.453-1.037
			c0.619,0.312,0.867,1.071,0.555,1.691c-0.311,0.624-1.061,0.87-1.686,0.561c-2.912-1.474-6.294-0.809-8.43,1.363
			c-0.236,0.241-0.557,0.377-0.893,0.377c-0.34,0-0.66-0.136-0.896-0.377c-1.376-1.402-3.208-2.175-5.158-2.175
			c-1.66,0-3.646,0.888-5.059,2.261C1125.521,230.51,1125.208,230.628,1124.894,230.628"/>
		<path fill="none" stroke="#FFFFFF" stroke-miterlimit="10" d="M1124.894,230.628c-0.329,0-0.657-0.128-0.903-0.385
			c-0.483-0.5-0.468-1.297,0.03-1.783c1.886-1.832,4.494-2.971,6.805-2.971c2.225,0,4.338,0.744,6.055,2.119
			c2.863-2.283,6.953-2.806,10.453-1.037c0.619,0.312,0.867,1.071,0.555,1.691c-0.311,0.624-1.061,0.87-1.686,0.561
			c-2.912-1.474-6.294-0.809-8.43,1.363c-0.236,0.241-0.557,0.377-0.893,0.377c-0.34,0-0.66-0.136-0.896-0.377
			c-1.376-1.402-3.208-2.175-5.158-2.175c-1.66,0-3.646,0.888-5.059,2.261C1125.521,230.51,1125.208,230.628,1124.894,230.628"/>
		<path fill="#47BFEF" d="M1073.773,236.426c3.751-2.318,8.021-1.746,10.97,0.613c2.436-1.945,5.684-2.662,8.871-1.683
			c0.662,0.205,1.035,0.912,0.831,1.578c-0.201,0.665-0.901,1.033-1.568,0.837c-2.711-0.843-5.386-0.042-7.241,1.844
			c-0.235,0.242-0.557,0.377-0.893,0.377c-0.338,0-0.661-0.135-0.895-0.377c-1.371-1.398-3.204-2.169-5.159-2.169
			c-1.128,0-2.441,0.411-3.602,1.127c-0.588,0.368-1.363,0.178-1.726-0.413C1072.995,237.568,1073.182,236.792,1073.773,236.426"/>
		<path fill="none" stroke="#FFFFFF" stroke-miterlimit="10" d="M1073.773,236.426c3.751-2.318,8.021-1.746,10.97,0.613
			c2.436-1.945,5.684-2.662,8.871-1.683c0.662,0.205,1.035,0.912,0.831,1.578c-0.201,0.665-0.901,1.033-1.568,0.837
			c-2.711-0.843-5.386-0.042-7.241,1.844c-0.235,0.242-0.557,0.377-0.893,0.377c-0.338,0-0.661-0.135-0.895-0.377
			c-1.371-1.398-3.204-2.169-5.159-2.169c-1.128,0-2.441,0.411-3.602,1.127c-0.588,0.368-1.363,0.178-1.726-0.413
			C1072.995,237.568,1073.182,236.792,1073.773,236.426"/>
	</g>
	<path fill="#47BFEF" d="M3041.019,325.755h-15.548v36.836h-19.808v24.422h-14.533v-44.57h-18.17V318h-24.747v34.654l-12.354-6.734
		v7.242l-12.718-6.932v7.244l-12.716-6.934v7.244l-12.717-6.933v14.673h-19v-17.104h-24.752v17.636h-22.706v-28.241h-22.256v27.709
		h-16.727v13.933l-7.493-4.084v7.388h-6.208v-7.086c5.18-1.004,9.091-5.562,9.091-11.034c0-5.474-3.911-10.03-9.091-11.036v-12.398
		h-4.54v12.447c-5.062,1.095-8.857,5.596-8.857,10.987c0,5.39,3.795,9.892,8.857,10.986v7.134h-7.268v-2.281
		c0,0-3.936-10.212-7.795-10.212c-3.861,0-7.191,10.212-7.191,10.212s-3.936-10.212-7.795-10.212c-3.86,0-7.19,10.212-7.19,10.212
		s-3.937-10.212-7.796-10.212c-2.977,0-5.637,6.066-6.699,8.848v-10.65h2.236v-5.881h-21.959v5.881h2.044v20.484h-26.566v-22.986
		l-14.986-8.17v17.712h-8.889v119.924h386.847V325.755z"/>
	<path fill="#47BFEF" d="M322.717,325.755h-15.548v36.836h-19.808v24.422h-14.533v-44.57h-18.17V318h-24.747v34.654l-12.354-6.734
		v7.242l-12.718-6.932v7.244l-12.716-6.934v7.244l-12.717-6.933v14.673h-19v-17.104h-24.752v17.636h-22.706v-28.241H90.693v27.709
		H73.966v13.933l-7.493-4.084v7.388h-6.208v-7.086c5.18-1.004,9.091-5.562,9.091-11.034c0-5.474-3.911-10.03-9.091-11.036v-12.398
		h-4.54v12.447c-5.062,1.095-8.857,5.596-8.857,10.987c0,5.39,3.795,9.892,8.857,10.986v7.134h-7.268v-2.281
		c0,0-3.936-10.212-7.795-10.212c-3.861,0-7.191,10.212-7.191,10.212s-3.936-10.212-7.795-10.212c-3.86,0-7.19,10.212-7.19,10.212
		s-3.937-10.212-7.796-10.212c-2.977,0-5.637,6.066-6.699,8.848v-10.65h2.236v-5.881h-21.959v5.881h2.044v20.484h-26.566v-22.986
		l-14.986-8.17v17.712h-8.889v119.924h386.847V325.755z"/>
</g>
<rect y="498.584" fill="#EBEBEB" width="3000" height="133.609"/>
<path fill-rule="evenodd" clip-rule="evenodd" fill="#D6D6D6" d="M265.462,576.599h-99.179c-2.784,0-5.062-2.279-5.062-5.064
	c0-2.783,2.277-5.062,5.062-5.062h99.179c2.783,0,5.062,2.279,5.062,5.062C270.524,574.32,268.245,576.599,265.462,576.599"/>
<path fill-rule="evenodd" clip-rule="evenodd" fill="#D6D6D6" d="M586.493,576.599h-99.178c-2.784,0-5.062-2.279-5.062-5.064
	c0-2.783,2.278-5.062,5.062-5.062h99.178c2.784,0,5.063,2.279,5.063,5.062C591.557,574.32,589.277,576.599,586.493,576.599"/>
<path fill-rule="evenodd" clip-rule="evenodd" fill="#D6D6D6" d="M907.525,576.599h-99.179c-2.784,0-5.062-2.279-5.062-5.064
	c0-2.783,2.277-5.062,5.062-5.062h99.179c2.783,0,5.062,2.279,5.062,5.062C912.588,574.32,910.309,576.599,907.525,576.599"/>
<path fill-rule="evenodd" clip-rule="evenodd" fill="#D6D6D6" d="M1228.557,576.599h-99.178c-2.784,0-5.062-2.279-5.062-5.064
	c0-2.783,2.278-5.062,5.062-5.062h99.178c2.784,0,5.063,2.279,5.063,5.062C1233.62,574.32,1231.341,576.599,1228.557,576.599"/>
<path fill-rule="evenodd" clip-rule="evenodd" fill="#D6D6D6" d="M1549.589,576.599h-99.179c-2.784,0-5.062-2.279-5.062-5.064
	c0-2.783,2.277-5.062,5.062-5.062h99.179c2.783,0,5.062,2.279,5.062,5.062C1554.651,574.32,1552.372,576.599,1549.589,576.599"/>
<path fill-rule="evenodd" clip-rule="evenodd" fill="#D6D6D6" d="M1870.62,576.599h-99.178c-2.785,0-5.062-2.279-5.062-5.064
	c0-2.783,2.277-5.062,5.062-5.062h99.178c2.783,0,5.062,2.279,5.062,5.062C1875.683,574.32,1873.403,576.599,1870.62,576.599"/>
<path fill-rule="evenodd" clip-rule="evenodd" fill="#D6D6D6" d="M2191.651,576.599h-99.178c-2.785,0-5.062-2.279-5.062-5.064
	c0-2.783,2.277-5.062,5.062-5.062h99.178c2.783,0,5.062,2.279,5.062,5.062C2196.714,574.32,2194.435,576.599,2191.651,576.599"/>
<path fill-rule="evenodd" clip-rule="evenodd" fill="#D6D6D6" d="M2512.683,576.599h-99.178c-2.785,0-5.062-2.279-5.062-5.064
	c0-2.783,2.277-5.062,5.062-5.062h99.178c2.783,0,5.062,2.279,5.062,5.062C2517.745,574.32,2515.466,576.599,2512.683,576.599"/>
<path fill-rule="evenodd" clip-rule="evenodd" fill="#D6D6D6" d="M2833.714,576.599h-99.178c-2.785,0-5.062-2.279-5.062-5.064
	c0-2.783,2.277-5.062,5.062-5.062h99.178c2.783,0,5.062,2.279,5.062,5.062C2838.776,574.32,2836.497,576.599,2833.714,576.599"/>
<g>
	<rect x="1852.195" y="304.397" fill="#FFFFFF" width="9.873" height="2.274"/>
	<rect x="1852.195" y="311.372" fill="#FFFFFF" width="9.873" height="2.274"/>
	<rect x="1852.195" y="318.19" fill="#FFFFFF" width="9.873" height="2.274"/>
	<rect x="1852.195" y="325.165" fill="#FFFFFF" width="9.873" height="2.274"/>
	<rect x="1852.195" y="332.111" fill="#FFFFFF" width="9.873" height="2.274"/>
	<rect x="1852.195" y="339.085" fill="#FFFFFF" width="9.873" height="2.274"/>
	<rect x="1852.195" y="345.904" fill="#FFFFFF" width="9.873" height="2.274"/>
	<rect x="1852.195" y="352.879" fill="#FFFFFF" width="9.873" height="2.273"/>
	<rect x="1852.195" y="359.665" fill="#FFFFFF" width="9.873" height="2.274"/>
	<rect x="1852.195" y="366.64" fill="#FFFFFF" width="9.873" height="2.273"/>
	<rect x="1852.195" y="373.458" fill="#FFFFFF" width="9.873" height="2.274"/>
	<rect x="1852.195" y="380.433" fill="#FFFFFF" width="9.873" height="2.273"/>
	<rect x="1852.195" y="387.379" fill="#FFFFFF" width="9.873" height="2.273"/>
	<rect x="1852.195" y="394.354" fill="#FFFFFF" width="9.873" height="2.274"/>
	<rect x="1852.195" y="401.172" fill="#FFFFFF" width="9.873" height="2.273"/>
	<rect x="1852.195" y="408.147" fill="#FFFFFF" width="9.873" height="2.274"/>
	<rect x="1852.195" y="414.958" fill="#FFFFFF" width="9.873" height="2.274"/>
	<rect x="1852.195" y="421.904" fill="#FFFFFF" width="9.873" height="2.274"/>
	<rect x="1852.195" y="428.878" fill="#FFFFFF" width="9.873" height="2.273"/>
	<rect x="1852.195" y="435.696" fill="#FFFFFF" width="9.873" height="2.274"/>
	<rect x="1852.195" y="442.671" fill="#FFFFFF" width="9.873" height="2.273"/>
	<rect x="1852.195" y="449.55" fill="#FFFFFF" width="9.873" height="2.273"/>
	<rect x="2022.37" y="256.102" fill="#FFFFFF" width="9.873" height="2.273"/>
	<rect x="2022.37" y="263.077" fill="#FFFFFF" width="9.873" height="2.274"/>
	<rect x="2022.37" y="269.895" fill="#FFFFFF" width="9.873" height="2.274"/>
	<rect x="2022.37" y="276.87" fill="#FFFFFF" width="9.873" height="2.274"/>
	<rect x="2022.37" y="283.816" fill="#FFFFFF" width="9.873" height="2.274"/>
	<rect x="2022.37" y="290.79" fill="#FFFFFF" width="9.873" height="2.274"/>
	<rect x="2022.37" y="297.609" fill="#FFFFFF" width="9.873" height="2.274"/>
	<rect x="2022.37" y="304.583" fill="#FFFFFF" width="9.873" height="2.274"/>
	<rect x="2022.37" y="311.37" fill="#FFFFFF" width="9.873" height="2.274"/>
	<rect x="2022.37" y="318.345" fill="#FFFFFF" width="9.873" height="2.273"/>
	<rect x="2022.37" y="325.163" fill="#FFFFFF" width="9.873" height="2.274"/>
	<rect x="2022.37" y="332.138" fill="#FFFFFF" width="9.873" height="2.273"/>
	<rect x="2022.37" y="339.083" fill="#FFFFFF" width="9.873" height="2.274"/>
	<rect x="2022.37" y="346.059" fill="#FFFFFF" width="9.873" height="2.273"/>
	<rect x="2022.37" y="352.876" fill="#FFFFFF" width="9.873" height="2.274"/>
	<rect x="2022.37" y="359.851" fill="#FFFFFF" width="9.873" height="2.273"/>
	<rect x="2022.37" y="366.662" fill="#FFFFFF" width="9.873" height="2.274"/>
	<rect x="2022.37" y="373.608" fill="#FFFFFF" width="9.873" height="2.274"/>
	<rect x="2022.37" y="380.583" fill="#FFFFFF" width="9.873" height="2.274"/>
	<rect x="2022.37" y="387.401" fill="#FFFFFF" width="9.873" height="2.274"/>
	<rect x="2022.37" y="394.375" fill="#FFFFFF" width="9.873" height="2.274"/>
	<rect x="2022.37" y="401.255" fill="#FFFFFF" width="9.873" height="2.273"/>
	<rect x="2022.37" y="408.235" fill="#FFFFFF" width="9.873" height="2.274"/>
	<rect x="2022.37" y="415.053" fill="#FFFFFF" width="9.873" height="2.273"/>
	<rect x="2022.37" y="422.028" fill="#FFFFFF" width="9.873" height="2.274"/>
	<rect x="2022.37" y="428.838" fill="#FFFFFF" width="9.873" height="2.273"/>
	<rect x="2022.37" y="435.784" fill="#FFFFFF" width="9.873" height="2.274"/>
	<rect x="2022.37" y="442.759" fill="#FFFFFF" width="9.873" height="2.273"/>
	<rect x="2022.37" y="449.577" fill="#FFFFFF" width="9.873" height="2.274"/>
	<rect x="2301.371" y="280.197" fill="#FFFFFF" width="9.873" height="2.274"/>
	<rect x="2301.371" y="287.172" fill="#FFFFFF" width="9.873" height="2.273"/>
	<rect x="2301.371" y="293.99" fill="#FFFFFF" width="9.873" height="2.274"/>
	<rect x="2301.371" y="300.965" fill="#FFFFFF" width="9.873" height="2.273"/>
	<rect x="2301.371" y="307.911" fill="#FFFFFF" width="9.873" height="2.274"/>
	<rect x="2301.371" y="314.886" fill="#FFFFFF" width="9.873" height="2.273"/>
	<rect x="2301.371" y="321.704" fill="#FFFFFF" width="9.873" height="2.274"/>
	<rect x="2301.371" y="328.679" fill="#FFFFFF" width="9.873" height="2.273"/>
	<rect x="2301.371" y="335.465" fill="#FFFFFF" width="9.873" height="2.273"/>
	<rect x="2301.371" y="342.44" fill="#FFFFFF" width="9.873" height="2.274"/>
	<rect x="2301.371" y="349.258" fill="#FFFFFF" width="9.873" height="2.273"/>
	<rect x="2301.371" y="356.233" fill="#FFFFFF" width="9.873" height="2.274"/>
	<rect x="2301.371" y="363.179" fill="#FFFFFF" width="9.873" height="2.273"/>
	<rect x="2301.371" y="370.154" fill="#FFFFFF" width="9.873" height="2.274"/>
	<rect x="2301.371" y="376.972" fill="#FFFFFF" width="9.873" height="2.273"/>
	<rect x="2301.371" y="383.947" fill="#FFFFFF" width="9.873" height="2.274"/>
	<rect x="2301.371" y="390.758" fill="#FFFFFF" width="9.873" height="2.273"/>
	<rect x="2301.371" y="397.703" fill="#FFFFFF" width="9.873" height="2.274"/>
	<rect x="2301.371" y="404.678" fill="#FFFFFF" width="9.873" height="2.273"/>
	<rect x="2301.371" y="411.496" fill="#FFFFFF" width="9.873" height="2.274"/>
	<rect x="2301.371" y="418.471" fill="#FFFFFF" width="9.873" height="2.273"/>
	<rect x="2301.371" y="425.35" fill="#FFFFFF" width="9.873" height="2.273"/>
	<rect x="1954.974" y="316.746" fill="#FFFFFF" width="8.384" height="3.78"/>
	<rect x="1954.974" y="323.466" fill="#FFFFFF" width="8.384" height="3.779"/>
	<rect x="1954.974" y="330.111" fill="#FFFFFF" width="8.384" height="3.78"/>
	<rect x="1954.974" y="336.831" fill="#FFFFFF" width="8.384" height="3.78"/>
	<rect x="1954.974" y="343.563" fill="#FFFFFF" width="8.384" height="3.78"/>
	<rect x="1954.974" y="350.283" fill="#FFFFFF" width="8.384" height="3.78"/>
	<rect x="1954.974" y="356.928" fill="#FFFFFF" width="8.384" height="3.779"/>
	<rect x="1954.974" y="363.648" fill="#FFFFFF" width="8.384" height="3.78"/>
	<rect x="1954.974" y="370.562" fill="#FFFFFF" width="8.384" height="3.78"/>
	<rect x="1954.974" y="377.281" fill="#FFFFFF" width="8.384" height="3.78"/>
	<rect x="1954.974" y="383.926" fill="#FFFFFF" width="8.384" height="3.779"/>
	<rect x="1954.974" y="390.646" fill="#FFFFFF" width="8.384" height="3.78"/>
	<rect x="1954.974" y="397.379" fill="#FFFFFF" width="8.384" height="3.779"/>
	<rect x="1954.974" y="404.099" fill="#FFFFFF" width="8.384" height="3.78"/>
	<rect x="1954.974" y="410.744" fill="#FFFFFF" width="8.384" height="3.78"/>
	<rect x="1954.974" y="417.464" fill="#FFFFFF" width="8.384" height="3.779"/>
	<rect x="1954.974" y="424.59" fill="#FFFFFF" width="8.384" height="3.779"/>
	<rect x="1954.974" y="431.31" fill="#FFFFFF" width="8.384" height="3.78"/>
	<rect x="1954.974" y="437.955" fill="#FFFFFF" width="8.384" height="3.78"/>
	<rect x="1954.974" y="444.675" fill="#FFFFFF" width="8.384" height="3.779"/>
</g>
</svg>
